<svg width="438" height="342" viewBox="0 0 438 342" fill="none" xmlns="http://www.w3.org/2000/svg">
<g clip-path="url(#clip0_1546_5595)">
<path d="M292.442 103.063C283.741 100.934 275.308 97.4657 267.356 92.7447C265.731 91.7393 264.15 90.6365 262.618 89.4405C248.625 78.5022 239.12 60.4068 227.936 45.9973C180.031 -15.7322 96.0055 3.78271 52.0285 61.373C33.1335 86.1579 20.7965 117.054 16.5671 150.18C8.28148 216.836 32.8186 287.881 90.9581 305.774C126 316.509 159.772 304.641 194.564 299.977C203.935 298.776 213.384 298.696 222.769 299.738C226.977 300.168 231.175 300.8 235.352 301.587C242.349 302.899 249.345 304.641 256.201 306.681C262.048 308.398 267.835 310.331 273.552 312.358L276.671 313.492C292.323 319.325 308.764 327.233 325.355 333.078L326.964 333.639C339.308 337.885 351.721 340.915 363.945 340.998C420.765 341.392 448.281 263.619 434.488 205.611C420.785 147.973 373.68 123.448 328.354 111.258C325.805 110.578 323.266 109.922 320.738 109.313C318.209 108.705 315.74 108.12 313.322 107.619C311.762 107.273 310.213 106.951 308.664 106.641C306.965 106.283 305.276 105.949 303.597 105.627L301.598 105.234C298.519 104.566 295.461 103.862 292.442 103.063Z" fill="#F9E7F8"/>
<path d="M96.3598 298.71C87.5104 298.761 78.6924 297.655 70.1298 295.42C58.6813 292.357 47.9565 287.047 38.5798 279.8C26.6496 270.445 17.0059 258.496 10.3798 244.86C3.56811 231.389 0.0160408 216.506 0.00976562 201.41C0.0217971 191.006 2.31569 180.731 6.72976 171.31C11.4969 161.391 18.6718 152.824 27.5998 146.39C36.3598 139.97 46.9798 134.53 61.0098 129.28L62.5898 128.69C71.5198 125.42 80.8098 122.56 89.7898 119.8C97.3698 117.47 104.52 115.28 111.49 112.8L114.56 111.71C120.85 109.41 126.33 107.28 131.33 105.18C138.33 102.27 144.62 99.33 150.61 96.18C154.51 94.18 158.22 92.04 161.61 89.93C169.666 85.0302 177.21 79.3351 184.13 72.93C190.4 67.08 196.5 60.88 202.39 54.93C220.47 36.5599 239.15 17.5699 264.5 7.24994C290.66 -3.40006 318.23 -2.36005 344.21 10.2499C367.92 21.7499 388.49 42.14 402.13 67.65C415.287 92.5005 420.832 120.677 418.07 148.66C416.054 167.425 410.232 185.582 400.96 202.02C391.849 218.47 379.42 232.847 364.46 244.24C353.338 252.686 340.685 258.897 327.2 262.53C313.192 266.21 298.538 266.716 284.31 264.01C279.31 263.08 274.15 261.78 269.16 260.53C257.91 257.71 246.28 254.79 234.77 255.46C232.947 255.564 231.131 255.764 229.33 256.06C220.591 257.618 212.093 260.307 204.05 264.06C201.34 265.28 198.51 266.63 195.65 268.06L193.84 268.99C192.06 269.91 190.61 270.65 189.26 271.33C187.7 272.12 186.32 272.82 185.03 273.45C182.59 274.65 180.36 275.72 178.22 276.73C176.08 277.74 173.79 278.78 171.13 279.97C145.92 291.13 123.92 297.16 103.87 298.41C101.336 298.61 98.8331 298.71 96.3598 298.71ZM300.96 0.249944C288.49 0.28678 276.147 2.75272 264.62 7.50995C239.33 17.8099 220.62 36.7899 202.62 55.1399C196.72 61.1399 190.62 67.3299 184.35 73.1399C177.421 79.5508 169.862 85.2463 161.79 90.1399C158.36 92.2499 154.65 94.36 150.79 96.4C144.79 99.55 138.47 102.5 131.48 105.4C126.48 107.5 121 109.64 114.7 111.93L111.63 113.03C104.63 115.46 97.4998 117.66 89.9298 120.03C80.9298 122.79 71.6598 125.64 62.7298 128.92L61.1598 129.5C47.1598 134.74 36.5498 140.17 27.7998 146.59C18.9069 152.999 11.7597 161.531 7.00976 171.41C2.61351 180.801 0.329885 191.041 0.319765 201.41C0.325758 216.467 3.86749 231.312 10.6598 244.75C17.2742 258.348 26.8932 270.265 38.7898 279.6C48.1394 286.828 58.8336 292.124 70.2498 295.18C81.2306 297.992 92.5947 299.005 103.9 298.18C123.9 296.94 145.9 290.91 171.08 279.76C173.74 278.58 176.08 277.52 178.16 276.53C180.24 275.54 182.53 274.44 184.97 273.24C186.26 272.61 187.64 271.92 189.19 271.13C190.55 270.45 192 269.71 193.77 268.79L195.58 267.85C198.45 266.39 201.28 265.04 204 263.85C212.062 260.09 220.581 257.401 229.34 255.85C231.16 255.56 232.95 255.36 234.81 255.25C246.36 254.58 258 257.5 269.27 260.33C274.27 261.58 279.41 262.87 284.41 263.81C298.599 266.507 313.212 265.998 327.18 262.32C340.637 258.704 353.264 252.51 364.36 244.08C379.294 232.707 391.7 218.353 400.79 201.93C410.031 185.516 415.826 167.39 417.82 148.66C420.583 120.735 415.06 92.6151 401.94 67.8099C388.33 42.3399 367.8 21.9999 344.13 10.5099C330.71 3.84472 315.944 0.335336 300.96 0.249944Z" fill="#637ED3"/>
<path d="M117.56 285.45C117.295 285.45 117.04 285.345 116.853 285.157C116.665 284.97 116.56 284.715 116.56 284.45V270.85C116.56 270.585 116.665 270.331 116.853 270.143C117.04 269.955 117.295 269.85 117.56 269.85C117.825 269.85 118.08 269.955 118.267 270.143C118.455 270.331 118.56 270.585 118.56 270.85V284.45C118.56 284.715 118.455 284.97 118.267 285.157C118.08 285.345 117.825 285.45 117.56 285.45Z" fill="#FBB136"/>
<path d="M124.36 278.66H110.76C110.495 278.66 110.24 278.555 110.053 278.367C109.865 278.179 109.76 277.925 109.76 277.66C109.76 277.395 109.865 277.14 110.053 276.953C110.24 276.765 110.495 276.66 110.76 276.66H124.36C124.625 276.66 124.879 276.765 125.067 276.953C125.254 277.14 125.36 277.395 125.36 277.66C125.36 277.925 125.254 278.179 125.067 278.367C124.879 278.555 124.625 278.66 124.36 278.66Z" fill="#FBB136"/>
<path d="M285.84 54.9201C285.575 54.9201 285.32 54.8147 285.133 54.6272C284.945 54.4396 284.84 54.1853 284.84 53.9201V40.3201C284.84 40.0549 284.945 39.8005 285.133 39.613C285.32 39.4254 285.575 39.3201 285.84 39.3201C286.105 39.3201 286.359 39.4254 286.547 39.613C286.735 39.8005 286.84 40.0549 286.84 40.3201V53.9201C286.84 54.1853 286.735 54.4396 286.547 54.6272C286.359 54.8147 286.105 54.9201 285.84 54.9201Z" fill="#FBB136"/>
<path d="M292.65 48.1201H279.07C278.805 48.1201 278.55 48.0148 278.363 47.8272C278.175 47.6397 278.07 47.3853 278.07 47.1201C278.07 46.8549 278.175 46.6005 278.363 46.413C278.55 46.2255 278.805 46.1201 279.07 46.1201H292.68C292.945 46.1201 293.199 46.2255 293.387 46.413C293.574 46.6005 293.68 46.8549 293.68 47.1201C293.68 47.3853 293.574 47.6397 293.387 47.8272C293.199 48.0148 292.945 48.1201 292.68 48.1201H292.65Z" fill="#FBB136"/>
<path d="M87.3798 12.06C87.1812 12.0612 86.9867 12.0031 86.8212 11.8933C86.6557 11.7835 86.5266 11.6269 86.4505 11.4435C86.3743 11.26 86.3545 11.0581 86.3936 10.8633C86.4326 10.6686 86.5288 10.4899 86.6698 10.35L96.2898 0.730003C96.4772 0.543752 96.7307 0.439209 96.9948 0.439209C97.259 0.439209 97.5125 0.543752 97.6998 0.730003C97.7936 0.822966 97.868 0.933568 97.9187 1.05543C97.9695 1.17729 97.9956 1.30799 97.9956 1.44C97.9956 1.57201 97.9695 1.70272 97.9187 1.82458C97.868 1.94644 97.7936 2.05704 97.6998 2.15L88.0698 11.77C87.886 11.9523 87.6387 12.0563 87.3798 12.06Z" fill="#FBB136"/>
<path d="M96.9998 12.06C96.8682 12.0608 96.7378 12.0355 96.6159 11.9858C96.4941 11.936 96.3833 11.8627 96.2898 11.77L86.6698 2.15C86.5761 2.05704 86.5017 1.94644 86.4509 1.82458C86.4002 1.70272 86.374 1.57201 86.374 1.44C86.374 1.30799 86.4002 1.17729 86.4509 1.05543C86.5017 0.933568 86.5761 0.822966 86.6698 0.730003C86.8572 0.543752 87.1106 0.439209 87.3748 0.439209C87.639 0.439209 87.8925 0.543752 88.0798 0.730003L97.6998 10.35C97.8403 10.4893 97.9362 10.6671 97.9756 10.8609C98.015 11.0547 97.996 11.2558 97.9211 11.4389C97.8462 11.6219 97.7187 11.7786 97.5547 11.8892C97.3907 11.9997 97.1976 12.0592 96.9998 12.06Z" fill="#FBB136"/>
<path d="M29.9302 239.23C29.665 239.23 29.4106 239.125 29.2231 238.937C29.0355 238.749 28.9302 238.495 28.9302 238.23V224.66C28.9302 224.395 29.0355 224.14 29.2231 223.953C29.4106 223.765 29.665 223.66 29.9302 223.66C30.1954 223.66 30.4497 223.765 30.6373 223.953C30.8248 224.14 30.9302 224.395 30.9302 224.66V238.26C30.9224 238.52 30.8136 238.767 30.6269 238.948C30.4402 239.129 30.1903 239.23 29.9302 239.23Z" fill="#407FFE"/>
<path d="M36.7301 232.43H23.1201C22.8549 232.43 22.6005 232.325 22.413 232.137C22.2255 231.95 22.1201 231.695 22.1201 231.43C22.1201 231.165 22.2255 230.91 22.413 230.723C22.6005 230.535 22.8549 230.43 23.1201 230.43H36.7301C36.9953 230.43 37.2497 230.535 37.4372 230.723C37.6248 230.91 37.7301 231.165 37.7301 231.43C37.7301 231.695 37.6248 231.95 37.4372 232.137C37.2497 232.325 36.9953 232.43 36.7301 232.43Z" fill="#407FFE"/>
<path d="M259.07 281.41C258.938 281.411 258.808 281.386 258.686 281.336C258.564 281.286 258.453 281.213 258.36 281.12L248.74 271.5C248.554 271.313 248.449 271.059 248.449 270.795C248.449 270.531 248.554 270.277 248.74 270.09C248.927 269.904 249.181 269.799 249.445 269.799C249.709 269.799 249.963 269.904 250.15 270.09L259.77 279.71C259.907 279.85 260 280.027 260.038 280.219C260.075 280.411 260.055 280.61 259.981 280.791C259.906 280.972 259.78 281.127 259.618 281.237C259.456 281.347 259.266 281.407 259.07 281.41Z" fill="#407FFE"/>
<path d="M249.42 281.41C249.289 281.411 249.158 281.386 249.036 281.336C248.914 281.286 248.804 281.213 248.71 281.12C248.524 280.933 248.419 280.679 248.419 280.415C248.419 280.151 248.524 279.897 248.71 279.71L258.33 270.09C258.518 269.904 258.771 269.799 259.035 269.799C259.299 269.799 259.553 269.904 259.74 270.09C259.926 270.277 260.031 270.531 260.031 270.795C260.031 271.059 259.926 271.313 259.74 271.5L250.12 281.12C249.934 281.305 249.683 281.409 249.42 281.41Z" fill="#407FFE"/>
<path d="M410.44 108.16C410.175 108.16 409.92 108.055 409.733 107.867C409.545 107.68 409.44 107.425 409.44 107.16V93.5601C409.44 93.2948 409.545 93.0405 409.733 92.853C409.92 92.6654 410.175 92.5601 410.44 92.5601C410.705 92.5601 410.96 92.6654 411.147 92.853C411.335 93.0405 411.44 93.2948 411.44 93.5601V107.16C411.44 107.425 411.335 107.68 411.147 107.867C410.96 108.055 410.705 108.16 410.44 108.16Z" fill="#407FFE"/>
<path d="M417.24 101.36H403.64C403.375 101.36 403.121 101.255 402.933 101.067C402.745 100.88 402.64 100.625 402.64 100.36C402.64 100.095 402.745 99.8405 402.933 99.653C403.121 99.4655 403.375 99.3601 403.64 99.3601H417.24C417.505 99.3601 417.76 99.4655 417.947 99.653C418.135 99.8405 418.24 100.095 418.24 100.36C418.24 100.625 418.135 100.88 417.947 101.067C417.76 101.255 417.505 101.36 417.24 101.36Z" fill="#407FFE"/>
<path d="M15.4801 205.18C15.4801 204.256 15.206 203.353 14.6924 202.584C14.1788 201.816 13.4489 201.218 12.595 200.865C11.741 200.511 10.8015 200.419 9.89538 200.6C8.98922 200.781 8.15712 201.227 7.50441 201.881C6.8517 202.535 6.40772 203.369 6.22866 204.275C6.04959 205.182 6.1435 206.121 6.4985 206.974C6.85349 207.827 7.45361 208.556 8.22291 209.068C8.9922 209.58 9.89608 209.852 10.8201 209.85C11.4329 209.85 12.0397 209.729 12.6058 209.494C13.1718 209.26 13.6859 208.915 14.1188 208.482C14.5516 208.048 14.8947 207.533 15.1283 206.966C15.3619 206.4 15.4815 205.793 15.4801 205.18Z" fill="#B5C2F6"/>
<path d="M227.95 15.5999C227.952 14.6754 227.679 13.7711 227.167 13.0016C226.655 12.2321 225.925 11.632 225.072 11.2773C224.218 10.9226 223.278 10.8293 222.371 11.0092C221.464 11.189 220.631 11.634 219.978 12.2877C219.324 12.9414 218.879 13.7745 218.699 14.6813C218.519 15.5881 218.613 16.5279 218.967 17.3817C219.322 18.2354 219.922 18.9647 220.692 19.477C221.461 19.9894 222.365 20.2619 223.29 20.2599C224.526 20.2599 225.711 19.7689 226.585 18.895C227.459 18.0211 227.95 16.8358 227.95 15.5999Z" fill="#B5C2F6"/>
<path d="M431.74 123.73C431.742 122.806 431.469 121.901 430.957 121.132C430.445 120.362 429.715 119.762 428.862 119.407C428.008 119.053 427.068 118.959 426.161 119.139C425.254 119.319 424.421 119.764 423.768 120.418C423.114 121.072 422.669 121.905 422.489 122.811C422.309 123.718 422.403 124.658 422.757 125.512C423.112 126.366 423.712 127.095 424.482 127.607C425.251 128.12 426.155 128.392 427.08 128.39C428.315 128.387 429.499 127.896 430.372 127.022C431.245 126.149 431.737 124.965 431.74 123.73Z" fill="#B5C2F6"/>
<path d="M82.6902 304.09C87.9314 304.09 92.1802 299.841 92.1802 294.6C92.1802 289.359 87.9314 285.11 82.6902 285.11C77.449 285.11 73.2002 289.359 73.2002 294.6C73.2002 299.841 77.449 304.09 82.6902 304.09Z" fill="#B5C2F6"/>
<path d="M311.874 32.0465C317.063 31.2079 320.589 26.3217 319.75 21.133C318.912 15.9442 314.026 12.4177 308.837 13.2563C303.648 14.0948 300.122 18.981 300.96 24.1698C301.799 29.3585 306.685 32.885 311.874 32.0465Z" fill="#B5C2F6"/>
<path d="M252.04 34.2H55.6601C47.4808 34.2 40.8501 40.8306 40.8501 49.0099V195.5C40.8501 203.679 47.4808 210.31 55.6601 210.31H252.04C260.219 210.31 266.85 203.679 266.85 195.5V49.0099C266.85 40.8306 260.219 34.2 252.04 34.2Z" fill="#D765D5"/>
<path d="M259.19 195.5V76.0701C259.19 71.939 255.841 68.5901 251.71 68.5901L55.3299 68.5901C51.1989 68.5901 47.8499 71.939 47.8499 76.0701V195.5C47.8499 199.631 51.1989 202.98 55.3299 202.98H251.71C255.841 202.98 259.19 199.631 259.19 195.5Z" fill="white"/>
<path d="M76.56 76.6399H54.48V98.1399H76.56V76.6399Z" fill="#F9E7F8"/>
<path d="M106.01 76.6399H83.9302V98.1399H106.01V76.6399Z" fill="#F9E7F8"/>
<path d="M135.45 76.6399H113.37V98.1399H135.45V76.6399Z" fill="#FBB136"/>
<path d="M164.89 76.6399H142.81V98.1399H164.89V76.6399Z" fill="#F9E7F8"/>
<path d="M194.34 76.6399H172.26V98.1399H194.34V76.6399Z" fill="#F9E7F8"/>
<path d="M223.78 76.6399H201.7V98.1399H223.78V76.6399Z" fill="#F9E7F8"/>
<path d="M253.23 76.6399H231.15V98.1399H253.23V76.6399Z" fill="#6177FF"/>
<path d="M76.56 108.55H54.48V130.05H76.56V108.55Z" fill="#F0746A"/>
<path d="M106.01 108.55H83.9302V130.05H106.01V108.55Z" fill="#E1ECFF"/>
<path d="M135.45 108.55H113.37V130.05H135.45V108.55Z" fill="#E1ECFF"/>
<path d="M164.89 108.55H142.81V130.05H164.89V108.55Z" fill="#F9E7F8"/>
<path d="M194.34 108.55H172.26V130.05H194.34V108.55Z" fill="#F9E7F8"/>
<path d="M223.78 108.55H201.7V130.05H223.78V108.55Z" fill="#F9E7F8"/>
<path d="M253.23 108.55H231.15V130.05H253.23V108.55Z" fill="#F0746A"/>
<path d="M76.56 140.46H54.48V161.96H76.56V140.46Z" fill="#E1ECFF"/>
<path d="M106.01 140.46H83.9302V161.96H106.01V140.46Z" fill="#F0746A"/>
<path d="M135.45 140.46H113.37V161.96H135.45V140.46Z" fill="#E1ECFF"/>
<path d="M164.89 140.46H142.81V161.96H164.89V140.46Z" fill="#FF8F66"/>
<path d="M194.34 140.46H172.26V161.96H194.34V140.46Z" fill="#F9E7F8"/>
<path d="M223.78 140.46H201.7V161.96H223.78V140.46Z" fill="#FF8F66"/>
<path d="M253.23 140.46H231.15V161.96H253.23V140.46Z" fill="#F9E7F8"/>
<path d="M76.56 172.37H54.48V193.87H76.56V172.37Z" fill="#FF9999"/>
<path d="M106.01 172.37H83.9302V193.87H106.01V172.37Z" fill="#6177FF"/>
<path d="M135.45 172.37H113.37V193.87H135.45V172.37Z" fill="#F9E7F8"/>
<path d="M164.89 172.37H142.81V193.87H164.89V172.37Z" fill="#E1ECFF"/>
<path d="M194.34 172.37H172.26V193.87H194.34V172.37Z" fill="#F9E7F8"/>
<path d="M223.78 172.37H201.7V193.87H223.78V172.37Z" fill="#FF9999"/>
<path d="M253.23 172.37H231.15V193.87H253.23V172.37Z" fill="#6177FF"/>
<path d="M62.5098 58.6599H59.0698L57.0698 51.9299C57.2943 53.2081 57.4146 54.5023 57.4298 55.7999V58.6599H55.0698V49.4599H58.4198L60.5098 56.2199C60.2732 54.9669 60.1494 53.6951 60.1398 52.4199V49.4199H62.5498L62.5098 58.6599Z" fill="white"/>
<path d="M73.5099 54.06C73.5099 57.06 71.9799 58.95 69.2099 58.95C66.4399 58.95 64.8999 57.12 64.8999 54.06C64.8999 51 66.4399 49.2 69.2099 49.2C71.9799 49.2 73.5099 51 73.5099 54.06ZM67.7399 54.06C67.7399 56.19 68.1799 57.01 69.2099 57.01C70.2399 57.01 70.6799 56.19 70.6799 54.06C70.6799 51.93 70.2399 51.13 69.2099 51.13C68.1799 51.13 67.7399 51.93 67.7399 54.06Z" fill="white"/>
<path d="M80.9399 58.6599H77.4199L74.9399 49.4399H77.8099L79.2199 56.7699L80.4799 49.4399H83.2699L80.9399 58.6599Z" fill="white"/>
<path d="M90.8398 51.36H87.8398V53.08H90.5098V54.92H87.8398V56.77H91.0698V58.66H85.0698V49.46H91.0698L90.8398 51.36Z" fill="white"/>
<path d="M103.22 58.6599H100.53L100.47 55.3899C100.427 54.1359 100.457 52.8805 100.56 51.6299L99.4801 57.7299H96.8901L95.7301 51.6299C95.8657 52.8751 95.9225 54.1276 95.9001 55.3799L95.8301 58.6599H93.1401L93.8101 49.4399H97.1701L98.2301 55.4399L99.2301 49.4399H102.61L103.22 58.6599Z" fill="white"/>
<path d="M113.07 55.95C113.07 58.14 111.25 58.68 108.83 58.68H105.6V49.46H108.47C111.06 49.46 112.68 50.05 112.68 51.85C112.673 52.3161 112.503 52.7651 112.2 53.1193C111.897 53.4736 111.48 53.7108 111.02 53.79C111.97 54.01 113.07 54.51 113.07 55.95ZM108.33 51.33V53.03H108.79C109.62 53.03 109.92 52.77 109.92 52.12C109.92 51.47 109.6 51.33 108.72 51.33H108.33ZM110.26 55.77C110.26 55.05 109.81 54.77 108.96 54.77H108.33V56.77H108.86C109.64 56.76 110.21 56.59 110.21 55.77H110.26Z" fill="white"/>
<path d="M121.12 51.36H118.07V53.08H120.75V54.92H118.07V56.77H121.33V58.66H115.33V49.46H121.38L121.12 51.36Z" fill="white"/>
<path d="M127.07 55.4H126.57V58.66H123.84V49.46H127.22C129.86 49.46 131.22 50.36 131.22 52.39C131.231 52.9222 131.081 53.4453 130.79 53.8912C130.499 54.3372 130.081 54.6852 129.59 54.89L131.84 58.68H128.84L127.07 55.4ZM126.57 53.57H127.29C128.03 53.57 128.4 53.2 128.4 52.39C128.4 51.58 127.96 51.33 127.15 51.33H126.57V53.57Z" fill="white"/>
<path d="M162.97 250.149C183.929 245.113 196.838 224.04 191.802 203.081C186.766 182.122 165.693 169.213 144.734 174.249C123.775 179.285 110.866 200.358 115.902 221.317C120.938 242.276 142.011 255.185 162.97 250.149Z" fill="#FFD700"/>
<path d="M159.14 244.489C176.967 241.567 189.05 224.746 186.127 206.919C183.205 189.091 166.384 177.009 148.556 179.931C130.729 182.854 118.647 199.675 121.569 217.502C124.492 235.329 141.313 247.412 159.14 244.489Z" fill="#FFF099"/>
<path d="M153.86 213.66C153.628 213.658 153.398 213.604 153.19 213.5C152.982 213.396 152.801 213.245 152.66 213.06L138.8 194.86C138.669 194.705 138.57 194.525 138.51 194.33C138.45 194.136 138.431 193.931 138.452 193.729C138.474 193.527 138.537 193.331 138.637 193.154C138.736 192.977 138.871 192.821 139.033 192.698C139.194 192.574 139.379 192.485 139.576 192.435C139.774 192.385 139.979 192.376 140.18 192.408C140.381 192.44 140.573 192.513 140.745 192.621C140.917 192.73 141.065 192.872 141.18 193.04L152.36 207.71V183.23C152.36 182.832 152.518 182.451 152.799 182.169C153.081 181.888 153.462 181.73 153.86 181.73C154.258 181.73 154.639 181.888 154.921 182.169C155.202 182.451 155.36 182.832 155.36 183.23V212.23C155.36 212.541 155.264 212.844 155.085 213.098C154.906 213.352 154.653 213.545 154.36 213.65C154.195 213.681 154.026 213.685 153.86 213.66Z" fill="white"/>
<path d="M163.31 170.2H144.68V175.64H163.31V170.2Z" fill="#CCAD00"/>
<path d="M164.81 170.19H143.19C142.833 170.191 142.48 170.122 142.15 169.987C141.82 169.851 141.52 169.652 141.267 169.4C141.015 169.148 140.814 168.849 140.677 168.519C140.541 168.19 140.47 167.837 140.47 167.48C140.47 166.759 140.757 166.067 141.267 165.557C141.777 165.047 142.469 164.76 143.19 164.76H164.81C165.532 164.76 166.223 165.047 166.734 165.557C167.244 166.067 167.53 166.759 167.53 167.48C167.53 167.837 167.46 168.19 167.323 168.519C167.186 168.849 166.986 169.148 166.733 169.4C166.48 169.652 166.18 169.851 165.85 169.987C165.52 170.122 165.167 170.191 164.81 170.19Z" fill="#FFF099"/>
<path d="M112.55 221.01C111.945 221.01 111.365 220.77 110.938 220.342C110.51 219.914 110.27 219.335 110.27 218.73V205.66C110.27 205.055 110.51 204.475 110.938 204.048C111.365 203.62 111.945 203.38 112.55 203.38C113.153 203.383 113.73 203.624 114.156 204.051C114.581 204.479 114.82 205.057 114.82 205.66V218.75C114.815 219.349 114.574 219.923 114.149 220.346C113.724 220.769 113.15 221.007 112.55 221.01Z" fill="#FFF099"/>
<path d="M125.58 110.88H11.4802C6.50413 110.88 2.47021 114.914 2.47021 119.89V156.45C2.47021 161.426 6.50413 165.46 11.4802 165.46H125.58C130.556 165.46 134.59 161.426 134.59 156.45V119.89C134.59 114.914 130.556 110.88 125.58 110.88Z" fill="#91268F"/>
<path d="M120 134.42H17.07C16.6483 134.42 16.2439 134.252 15.9457 133.954C15.6475 133.656 15.48 133.252 15.48 132.83C15.4826 132.41 15.6513 132.008 15.9492 131.712C16.2471 131.416 16.65 131.25 17.07 131.25H120C120.419 131.25 120.821 131.416 121.117 131.713C121.414 132.009 121.58 132.411 121.58 132.83C121.58 133.25 121.414 133.653 121.118 133.951C120.822 134.249 120.42 134.417 120 134.42Z" fill="white"/>
<path d="M120 143.32H17.07C16.6483 143.32 16.2439 143.152 15.9457 142.854C15.6475 142.556 15.48 142.152 15.48 141.73C15.4826 141.31 15.6513 140.908 15.9492 140.612C16.2471 140.316 16.65 140.15 17.07 140.15H120C120.419 140.15 120.821 140.316 121.117 140.613C121.414 140.909 121.58 141.311 121.58 141.73C121.58 142.15 121.414 142.553 121.118 142.851C120.822 143.149 120.42 143.317 120 143.32Z" fill="white"/>
<path d="M102.6 110.88L124.36 83.98L121.88 110.88H102.6Z" fill="#91268F"/>
<path d="M254.758 232.405C269.781 228.903 279.121 213.886 275.619 198.864C272.118 183.841 257.101 174.501 242.078 178.003C227.056 181.504 217.716 196.521 221.217 211.543C224.719 226.566 239.735 235.906 254.758 232.405Z" fill="#008000"/>
<path d="M238.53 216.72C238.418 216.718 238.308 216.701 238.2 216.67C238.015 216.625 237.843 216.538 237.695 216.417C237.548 216.296 237.43 216.143 237.35 215.97L230.97 202.51C230.852 202.202 230.854 201.86 230.977 201.554C231.1 201.248 231.333 200.999 231.632 200.857C231.93 200.716 232.27 200.692 232.585 200.791C232.9 200.89 233.166 201.103 233.33 201.39L239.04 213.39L263.94 195.66C264.223 195.479 264.565 195.413 264.895 195.477C265.225 195.54 265.518 195.728 265.713 196.002C265.909 196.276 265.991 196.614 265.944 196.947C265.897 197.279 265.724 197.581 265.46 197.79L239.29 216.46C239.071 216.625 238.805 216.716 238.53 216.72Z" fill="white"/>
<path d="M413.61 201.55C412.61 204.09 411.55 206.6 410.44 209.05C405.24 191.14 394.23 184.17 387.94 181.58C386.444 180.93 384.881 180.447 383.28 180.14C383.99 178.467 384.805 176.841 385.72 175.27C385.72 175.27 404.31 175.78 413.61 201.55Z" fill="white"/>
<path d="M375.13 175.27L390.6 168.46C388.75 170.563 387.112 172.845 385.71 175.27C384.795 176.841 383.98 178.467 383.27 180.14C382.24 182.552 381.407 185.043 380.78 187.59L375.13 175.27Z" fill="#CE3F38"/>
<path d="M388.28 203.93L380.78 187.59C381.407 185.044 382.24 182.552 383.27 180.14C384.871 180.447 386.434 180.93 387.93 181.58C387.337 189.024 387.454 196.508 388.28 203.93Z" fill="#DD6936"/>
<path d="M385.49 286.91L383.72 280.51L385.33 280.98C385.39 282.97 385.45 284.95 385.49 286.91Z" fill="#CE3F38"/>
<path d="M385.33 280.98L383.72 280.51L381.12 271.07C382.404 270.877 383.674 270.597 384.92 270.23C385.07 273.75 385.21 277.37 385.33 280.98Z" fill="#CE3F38"/>
<path d="M383.27 247.56C383.99 253.42 384.53 261.56 384.92 270.23C383.674 270.597 382.404 270.877 381.12 271.07L374.73 247.93C377.517 248.918 380.579 248.785 383.27 247.56Z" fill="#CE3F38"/>
<path d="M378.87 104.37L377.43 102.37L371.28 93.6599L367.61 96.6599L362.61 100.74L354.86 107.01C355.589 106.569 356.4 106.281 357.244 106.162C358.088 106.044 358.947 106.097 359.77 106.32L364.5 107.59C365.028 107.732 365.528 107.962 365.98 108.27V101.66C365.98 101.346 366.042 101.035 366.162 100.745C366.282 100.455 366.458 100.192 366.68 99.9699C366.96 99.695 367.304 99.4925 367.68 99.3799C367.909 99.3071 368.149 99.27 368.39 99.2699C368.988 99.2699 369.565 99.4934 370.007 99.8967C370.449 100.3 370.725 100.854 370.78 101.45L371.92 114.45L372.25 118.13L373.45 117.05L382.28 109.05L378.87 104.37Z" fill="#212155"/>
<path d="M362.17 94.6599C362.636 96.6509 362.771 98.705 362.57 100.74L354.82 107.01L353.73 107.67C353.163 108.023 352.731 108.555 352.501 109.182C352.271 109.809 352.256 110.494 352.46 111.13V111.71C350.615 111.612 348.798 112.2 347.36 113.36C347.378 112.597 347.441 111.835 347.55 111.08C349.67 96.0399 362.17 94.6599 362.17 94.6599Z" fill="#DD6936"/>
<path d="M343.97 116.09L347.29 113.38C347.308 112.617 347.371 111.855 347.48 111.1C349.62 96.0999 362.12 94.6799 362.12 94.6799C361.686 92.8453 360.931 91.1018 359.89 89.5299L359.38 88.8099C358.135 87.2241 356.526 85.9617 354.69 85.1299C346.69 81.2899 347.53 74.0299 347.53 74.0299C348.58 69.5199 346.93 67.3199 345.64 66.3299C345.025 65.8859 344.304 65.6102 343.55 65.5299C342.213 65.3509 340.917 64.9416 339.72 64.3199C338.536 63.7059 337.544 62.7789 336.85 61.6399C331.08 65.9399 327 66.9499 324.13 66.4099L324.08 66.6699C324.08 66.6699 322.77 70.4399 321 76.0499C320.964 76.1412 320.934 76.2347 320.91 76.3299C317.603 86.4629 314.836 96.764 312.62 107.19C312.11 109.8 311.72 112.26 311.5 114.44C311.284 116.485 311.59 118.552 312.391 120.446C313.192 122.341 314.462 124.001 316.08 125.27C317.014 126.004 318.056 126.588 319.17 127C319.54 127.14 319.93 127.27 320.33 127.38C323.21 128.186 326.209 128.481 329.19 128.25C329.643 128.23 330.094 128.179 330.54 128.1C331.563 127.942 332.568 127.684 333.54 127.33C336.77 126.17 342.97 123.89 344.86 122.79H344.92C345.61 121.932 346.54 121.299 347.59 120.97C347.59 120.7 347.52 120.31 347.49 119.84L346.71 120.26C346.34 120.456 345.929 120.559 345.51 120.56C344.991 120.559 344.485 120.397 344.061 120.097C343.637 119.797 343.316 119.374 343.142 118.884C342.968 118.395 342.949 117.864 343.089 117.364C343.228 116.864 343.518 116.419 343.92 116.09H343.97ZM325.23 85.5899C324.904 85.5899 324.585 85.4931 324.313 85.3118C324.042 85.1305 323.831 84.8728 323.706 84.5713C323.581 84.2698 323.548 83.9381 323.612 83.618C323.675 83.2979 323.833 83.0039 324.063 82.7732C324.294 82.5424 324.588 82.3853 324.908 82.3216C325.228 82.2579 325.56 82.2906 325.862 82.4155C326.163 82.5404 326.421 82.7519 326.602 83.0232C326.783 83.2945 326.88 83.6136 326.88 83.9399C326.88 84.3775 326.706 84.7972 326.397 85.1066C326.087 85.4161 325.668 85.5899 325.23 85.5899ZM344.91 90.8399C345.237 90.8379 345.557 90.933 345.829 91.1131C346.102 91.2932 346.315 91.5502 346.442 91.8515C346.568 92.1528 346.602 92.4849 346.54 92.8056C346.477 93.1263 346.321 93.4213 346.09 93.653C345.86 93.8848 345.566 94.0429 345.246 94.1074C344.925 94.1719 344.593 94.1398 344.291 94.0152C343.989 93.8906 343.731 93.6792 343.549 93.4076C343.367 93.1361 343.27 92.8167 343.27 92.4899C343.27 92.054 343.443 91.6358 343.75 91.3267C344.057 91.0175 344.474 90.8425 344.91 90.8399Z" fill="#FA9664"/>
<path d="M353.07 118.91L355.64 121.4C355.64 121.4 351.15 119.8 347.64 120.98C347.64 120.71 347.57 120.32 347.54 119.85L350.01 118.51C350.496 118.241 351.055 118.135 351.606 118.207C352.156 118.279 352.67 118.525 353.07 118.91Z" fill="#DD6936"/>
<path d="M346.59 132.36L349.59 126.96C348.663 129.989 347.527 132.949 346.19 135.82C344.732 139.046 344.418 142.672 345.3 146.1L330.57 128.1C331.593 127.942 332.597 127.684 333.57 127.33C336.8 126.17 343 123.89 344.89 122.79H344.95C344.633 123.185 344.373 123.622 344.18 124.09L341.74 130.02C341.488 130.621 341.465 131.294 341.675 131.911C341.885 132.528 342.314 133.047 342.88 133.37C343.288 133.604 343.75 133.728 344.22 133.73C344.701 133.735 345.175 133.61 345.592 133.369C346.009 133.128 346.354 132.78 346.59 132.36Z" fill="#DD6936"/>
<path d="M346.22 149.71L347.65 155.32C338.29 163.82 326.1 159.23 326.1 159.23C317.92 156.28 314.72 150.15 313.82 143.89C315.665 144.284 317.544 144.498 319.43 144.53C320.125 146.85 321.335 148.983 322.97 150.77C324.65 152.593 326.736 153.996 329.058 154.865C331.381 155.733 333.875 156.043 336.34 155.77C338.338 155.573 340.265 154.925 341.976 153.876C343.688 152.826 345.139 151.402 346.22 149.71Z" fill="white"/>
<path d="M410.43 209.05C405.23 191.14 394.22 184.17 387.93 181.58C387.337 189.024 387.454 196.508 388.28 203.93L380.78 187.59L375.13 175.27L366.73 156.96C365.913 155.214 365.357 153.358 365.08 151.45C364.593 148.191 364.764 144.867 365.581 141.674C366.399 138.482 367.847 135.485 369.84 132.86L371.14 131C372.367 129.252 372.943 127.129 372.77 125L372.18 118.23L371.85 114.55L370.71 101.55C370.655 100.954 370.379 100.4 369.937 99.9969C369.495 99.5936 368.918 99.3701 368.32 99.3701C368.079 99.3702 367.839 99.4073 367.61 99.4801C367.234 99.5927 366.89 99.7952 366.61 100.07C366.388 100.292 366.212 100.556 366.092 100.845C365.972 101.135 365.91 101.446 365.91 101.76V108.35C365.458 108.042 364.958 107.812 364.43 107.67L359.7 106.4C358.877 106.178 358.018 106.124 357.174 106.243C356.33 106.361 355.519 106.65 354.79 107.09L353.7 107.75C353.133 108.103 352.701 108.635 352.471 109.262C352.241 109.889 352.226 110.574 352.43 111.21V111.79C350.584 111.692 348.768 112.28 347.33 113.44L344.01 116.15C343.608 116.479 343.318 116.924 343.178 117.424C343.039 117.924 343.058 118.455 343.232 118.945C343.406 119.434 343.727 119.857 344.15 120.157C344.574 120.457 345.081 120.619 345.6 120.62C346.018 120.619 346.43 120.516 346.8 120.32L347.58 119.9L350.05 118.56C350.537 118.293 351.097 118.188 351.647 118.262C352.198 118.336 352.71 118.584 353.11 118.97L355.68 121.46C355.68 121.46 351.19 119.86 347.68 121.04C346.629 121.369 345.7 122.002 345.01 122.86C344.693 123.255 344.433 123.692 344.24 124.16L341.8 130.09C341.548 130.691 341.525 131.364 341.735 131.981C341.945 132.598 342.374 133.117 342.94 133.44C343.348 133.674 343.809 133.798 344.28 133.8C344.759 133.8 345.229 133.672 345.642 133.43C346.056 133.187 346.396 132.839 346.63 132.42L349.63 127.02C348.703 130.049 347.567 133.009 346.23 135.88C344.772 139.106 344.458 142.732 345.34 146.16L346.25 149.77L347.68 155.38L349.1 160.99C349.34 161.99 349.55 162.93 349.73 163.91C351.48 173.58 361.67 228.99 367.73 241.31C367.73 241.31 369.95 246.19 374.73 247.98C377.516 248.971 380.577 248.842 383.27 247.62C386.1 246.5 389.33 244.34 393 240.67C399.595 230.601 405.424 220.052 410.44 209.11L410.43 209.05Z" fill="#FA9664"/>
<path d="M319.42 144.53C316.9 136.36 320.37 127.35 320.37 127.35C323.25 128.157 326.248 128.451 329.23 128.22C329.683 128.2 330.134 128.15 330.58 128.07L345.31 146.07L346.22 149.68C345.139 151.375 343.687 152.802 341.974 153.853C340.26 154.905 338.331 155.554 336.33 155.75C333.865 156.024 331.371 155.713 329.049 154.845C326.726 153.976 324.64 152.574 322.96 150.75C321.328 148.969 320.118 146.843 319.42 144.53Z" fill="#FA9664"/>
<path d="M344.91 90.8399C345.237 90.8379 345.557 90.933 345.829 91.1131C346.102 91.2932 346.315 91.5502 346.442 91.8515C346.568 92.1528 346.602 92.4849 346.54 92.8056C346.477 93.1263 346.321 93.4213 346.09 93.653C345.86 93.8848 345.566 94.0429 345.246 94.1074C344.925 94.1719 344.593 94.1398 344.291 94.0152C343.989 93.8906 343.731 93.6792 343.549 93.4076C343.367 93.1361 343.27 92.8166 343.27 92.4899C343.27 92.054 343.442 91.6358 343.75 91.3267C344.057 91.0175 344.474 90.8425 344.91 90.8399Z" fill="black"/>
<path d="M325.23 82.3C325.557 82.3001 325.876 82.3971 326.148 82.5788C326.419 82.7606 326.631 83.0189 326.755 83.321C326.88 83.623 326.912 83.9553 326.848 84.2757C326.783 84.596 326.625 84.89 326.393 85.1203C326.161 85.3507 325.867 85.507 325.546 85.5695C325.225 85.6321 324.893 85.598 324.592 85.4716C324.29 85.3451 324.033 85.1321 323.853 84.8595C323.673 84.5868 323.578 84.2668 323.58 83.94C323.583 83.5042 323.758 83.0871 324.067 82.7798C324.376 82.4725 324.794 82.3 325.23 82.3Z" fill="black"/>
<path d="M319.21 126.97C319.58 127.11 319.97 127.24 320.37 127.35C320.37 127.35 316.9 136.35 319.42 144.53C317.534 144.498 315.655 144.284 313.81 143.89C312.49 134.7 316.12 125.24 316.12 125.24C317.053 125.974 318.096 126.558 319.21 126.97Z" fill="white"/>
<path d="M289.46 134.38L287.46 146.98C285.644 145.874 283.907 144.644 282.26 143.3L289.46 134.38Z" fill="#CE3F38"/>
<path d="M282.23 143.3L289.46 134.38L287.46 146.98C298.25 153.62 311.64 156.89 321.59 164.86C338.24 178.19 338.81 194.86 337.41 214.81C336.41 229.52 338.08 246.15 348.41 257.59C356.99 267.07 368.96 272.94 381.11 271.07L374.72 247.93C369.93 246.14 367.72 241.26 367.72 241.26C361.64 228.94 351.45 173.53 349.72 163.86C349.54 162.86 349.33 161.91 349.09 160.94L347.67 155.33C338.31 163.83 326.12 159.24 326.12 159.24C317.94 156.29 314.74 150.16 313.84 143.9C312.031 143.49 310.293 142.816 308.68 141.9C304.835 139.799 301.906 136.346 300.46 132.21C297.9 124.97 301.32 114.85 297.88 108.52C291.17 109.44 283.76 110.7 277.39 111.86C276.7 111.99 276.01 112.1 275.32 112.2C274.033 113.959 273.077 115.938 272.5 118.04C270.77 125.25 271.79 131.04 276.16 136.94C277.904 139.31 279.944 141.448 282.23 143.3ZM406.36 175.07C401.74 171.83 396.67 169.66 391.83 167.14C387.45 164.86 383.25 162.29 379.74 158.37C374.18 152.18 378.07 141.78 380.35 134.9C381.552 131.569 382.554 128.17 383.35 124.72C380.17 122.07 376.83 119.5 373.35 117.11L372.15 118.19L372.74 124.96C372.914 127.089 372.337 129.212 371.11 130.96L369.81 132.82C367.815 135.451 366.368 138.455 365.554 141.655C364.74 144.855 364.575 148.186 365.07 151.45C365.347 153.358 365.903 155.214 366.72 156.96L375.12 175.27L390.59 168.46C388.74 170.564 387.102 172.845 385.7 175.27C385.7 175.27 404.3 175.78 413.6 201.55C414.7 198.74 415.72 195.9 416.6 193.08C415.23 185.83 412.07 179.09 406.36 175.07ZM402.82 159C403.06 159.17 403.31 159.33 403.56 159.48C407.77 162 412.01 161.95 416.14 160.67C415.84 160.17 415.52 159.67 415.19 159.21C409.242 150.884 402.623 143.058 395.4 135.81C395.01 140.16 394.54 144.29 395.07 146.81C395.948 151.735 398.733 156.115 402.82 159ZM370.82 307.18C367.807 309.043 364.392 310.157 360.86 310.428C357.328 310.7 353.782 310.121 350.52 308.74C336.45 303.22 335.13 290.35 335.58 277.12C335.814 272.779 335.627 268.425 335.02 264.12C334.29 259.87 332.82 255.97 329.9 254.12C324.53 250.66 318.97 253.74 314.54 258.44C311.08 262.195 308.311 266.532 306.36 271.25C302.154 282.856 301.631 295.476 304.86 307.39C306.313 307.897 307.833 308.387 309.42 308.86C320.966 312.149 332.914 313.815 344.92 313.81C349.92 313.87 355.25 313.7 360.92 313.26C365.14 312.94 369.557 312.46 374.17 311.82C375.992 311.566 377.741 310.938 379.309 309.977C380.877 309.015 382.229 307.739 383.28 306.23C384.743 304.143 385.586 301.685 385.71 299.14C384.792 299.297 383.892 299.542 383.02 299.87C378.58 301.47 374.87 304.85 370.81 307.18H370.82ZM308.55 187.79C303.55 183.79 297.15 182.31 291.55 179.38C289.72 178.38 287.72 177.6 285.72 176.7V202.66L281.07 252.56L278.49 280.56C278.179 283.966 278.764 287.394 280.187 290.504C281.61 293.614 283.82 296.298 286.6 298.29C285.96 293.227 285.789 288.115 286.09 283.02C286.521 272.953 289.102 263.096 293.66 254.11C293.86 253.71 294.07 253.32 294.28 252.93C302.38 237.93 320.07 226.55 320.13 208.08C320.16 199.66 314.88 192.92 308.55 187.79Z" fill="#EF7369"/>
<path d="M383.27 306.17C382.219 307.679 380.867 308.955 379.299 309.916C377.731 310.878 375.982 311.506 374.16 311.76C369.553 312.427 365.137 312.907 360.91 313.2C355.24 313.64 349.91 313.81 344.91 313.75C332.904 313.755 320.956 312.089 309.41 308.8C307.823 308.333 306.303 307.843 304.85 307.33C301.945 306.312 299.094 305.144 296.31 303.83C293.151 302.341 290.103 300.627 287.19 298.7C286.99 298.57 286.8 298.43 286.61 298.29C284.587 296.844 282.859 295.025 281.52 292.93L278.5 313.2L304.85 325.5L341 337.5L353 340L365.5 341L385 337.5L383.27 306.17Z" fill="#7A9BFC"/>
<path d="M287.43 146.98L286.43 152.98C286.27 153.98 286.14 154.91 286.03 155.88C282.118 155.114 278.26 154.095 274.48 152.83L282.2 143.3C283.857 144.645 285.604 145.875 287.43 146.98Z" fill="#CE3F38"/>
<path d="M276.13 136.94C271.76 130.99 270.74 125.25 272.47 118.04C273.047 115.938 274.003 113.959 275.29 112.2C272.73 112.6 270.149 112.858 267.56 112.97C268.664 125.518 268.778 138.134 267.9 150.7C269.96 151.37 272.25 152.11 274.51 152.81L282.23 143.28C279.934 141.436 277.884 139.305 276.13 136.94ZM300.43 132.21C301.876 136.346 304.805 139.799 308.65 141.9C310.263 142.816 312.001 143.49 313.81 143.9C312.49 134.71 316.12 125.25 316.12 125.25C314.502 123.981 313.232 122.321 312.431 120.426C311.63 118.532 311.324 116.465 311.54 114.42C311.76 112.24 312.15 109.78 312.66 107.17C307.7 107.319 302.754 107.773 297.85 108.53C301.29 114.85 297.87 124.97 300.43 132.21ZM383.72 280.51L381.12 271.07C368.97 272.94 357 267.07 348.42 257.59C338.05 246.15 336.35 229.52 337.42 214.81C338.82 194.87 338.25 178.19 321.6 164.86C311.65 156.86 298.26 153.62 287.47 146.98L286.47 152.98C286.31 153.98 286.18 154.91 286.07 155.88C285.827 158.078 285.703 160.288 285.7 162.5V176.66C287.7 177.56 289.7 178.39 291.53 179.34C297.16 182.27 303.6 183.74 308.53 187.75C314.86 192.88 320.14 199.58 320.12 208.04C320.06 226.51 302.37 237.92 294.27 252.89C294.06 253.28 293.85 253.67 293.65 254.07C289.083 263.067 286.498 272.939 286.07 283.02C285.769 288.115 285.94 293.227 286.58 298.29C286.77 298.43 286.96 298.57 287.16 298.7C290.073 300.627 293.121 302.341 296.28 303.83C299.064 305.144 301.915 306.312 304.82 307.33C301.591 295.416 302.114 282.795 306.32 271.19C308.271 266.471 311.04 262.135 314.5 258.38C318.93 253.68 324.5 250.6 329.86 254.06C332.78 255.94 334.25 259.84 334.98 264.06C335.587 268.365 335.774 272.719 335.54 277.06C335.09 290.29 336.41 303.16 350.48 308.68C353.742 310.061 357.288 310.639 360.82 310.368C364.352 310.097 367.767 308.983 370.78 307.12C374.84 304.79 378.55 301.41 382.98 299.74C383.852 299.412 384.752 299.167 385.67 299.01C385.67 298.74 385.67 298.46 385.67 298.18C385.62 294.6 385.55 290.77 385.45 286.85L383.72 280.51ZM416.14 160.66C412.01 161.94 407.77 161.99 403.56 159.47C403.31 159.32 403.06 159.16 402.82 158.99C398.735 156.108 395.95 151.731 395.07 146.81C394.54 144.29 395.01 140.16 395.4 135.81C391.73 132.1 387.69 128.33 383.4 124.72C382.604 128.17 381.602 131.569 380.4 134.9C378.12 141.78 374.23 152.18 379.79 158.37C383.3 162.29 387.5 164.86 391.88 167.14C396.72 169.66 401.79 171.83 406.41 175.07C412.15 179.07 415.28 185.83 416.65 193.07C418.643 187.11 419.788 180.899 420.05 174.62C420.083 169.692 418.728 164.854 416.14 160.66Z" fill="#FF8983"/>
<path d="M267.56 112.98C268.664 125.528 268.777 138.144 267.9 150.71C265.6 149.96 263.58 149.27 262.19 148.8C263.36 134.23 261.03 113.02 261.03 113.02C263.21 113.113 265.386 113.113 267.56 113.02V112.98Z" fill="white"/>
<path d="M261.07 113.02C255.668 112.808 250.304 112.016 245.07 110.66L178.64 93.66L163.38 76.82C162.897 76.2865 162.288 75.8826 161.608 75.645C160.929 75.4074 160.201 75.3438 159.49 75.46L157.49 75.78L157.34 76.01L155.93 75.13C155.316 74.7436 154.6 74.5495 153.875 74.5727C153.15 74.5958 152.448 74.8352 151.86 75.26L148.22 77.88V78.05C147.219 78.0759 146.262 78.4672 145.53 79.15L142.07 82.38L136.07 82.86C135.517 82.9111 135.005 83.1757 134.643 83.5977C134.281 84.0198 134.097 84.5661 134.131 85.121C134.165 85.676 134.413 86.196 134.824 86.571C135.234 86.946 135.774 87.1465 136.33 87.13H136.5L142.31 86.65C143.617 86.5387 144.932 86.671 146.19 87.04L151.08 88.46C151.904 88.6788 152.607 89.2158 153.034 89.9528C153.462 90.6898 153.579 91.5665 153.36 92.39C153.141 93.2135 152.604 93.9164 151.867 94.344C151.13 94.7715 150.254 94.8888 149.43 94.67L139.43 92.26C138.748 92.0953 138.028 92.2038 137.424 92.5626C136.821 92.9213 136.382 93.5018 136.2 94.18C136.141 94.412 136.111 94.6505 136.11 94.89C136.109 95.4656 136.293 96.0264 136.635 96.4893C136.977 96.9521 137.459 97.2925 138.01 97.46L149.46 100.97C150.867 101.399 152.212 102.011 153.46 102.79L156.62 104.79C159.009 106.279 161.816 106.953 164.62 106.71L167.22 106.49C168.441 106.382 169.668 106.595 170.78 107.11L260.23 148.11L262.23 148.8C263.36 134.23 261.07 113.02 261.07 113.02Z" fill="#FA9664"/>
<path d="M311.54 114.41C311.451 116.16 311.731 117.909 312.361 119.544C312.992 121.179 313.959 122.663 315.2 123.9C317.65 126.38 321.2 127.31 324.62 127.65C326.359 127.82 328.111 127.82 329.85 127.65C331.583 127.463 333.282 127.039 334.9 126.39C336.593 125.83 338.26 125.25 339.9 124.65C341.58 124.07 343.25 123.48 344.9 122.74C341.762 124.431 338.507 125.895 335.16 127.12C333.502 127.865 331.743 128.36 329.94 128.59C328.138 128.775 326.322 128.775 324.52 128.59C322.704 128.419 320.916 128.019 319.2 127.4C317.462 126.779 315.898 125.75 314.64 124.4C313.395 123.057 312.462 121.456 311.91 119.71C311.389 117.994 311.262 116.182 311.54 114.41Z" fill="#C44C22"/>
<path d="M395.27 219.17C393.69 216.22 392.21 213.23 390.75 210.23C389.29 207.23 387.87 204.23 386.47 201.18C385.07 198.13 383.71 195.11 382.4 192.04L380.4 187.44C379.78 185.89 379.13 184.35 378.54 182.79C380.12 185.73 381.6 188.72 383.06 191.72C384.52 194.72 385.94 197.72 387.34 200.77C388.74 203.82 390.1 206.84 391.41 209.91C392.72 212.98 394.07 216.05 395.27 219.17Z" fill="#C44C22"/>
<path d="M368.9 114.77C368.422 113.708 368.005 112.62 367.65 111.51C367.378 110.478 366.782 109.559 365.95 108.89C365.547 108.556 365.091 108.293 364.6 108.11C364.12 107.94 363.51 107.78 362.98 107.58C361.873 107.22 360.788 106.796 359.73 106.31C360.889 106.417 362.041 106.591 363.18 106.83C363.76 106.94 364.28 107.06 364.9 107.22C365.813 107.497 366.627 108.029 367.247 108.754C367.868 109.479 368.267 110.365 368.4 111.31C368.632 112.453 368.799 113.608 368.9 114.77Z" fill="#C44C22"/>
<path d="M349.6 126.96C348.833 130.072 347.802 133.113 346.52 136.05C345.315 138.928 344.998 142.101 345.61 145.16C346.32 148.21 347.13 151.34 347.82 154.45C348.51 157.56 349.28 160.67 349.7 163.85C349.25 162.31 348.89 160.77 348.39 159.24L347.07 154.66C346.2 151.57 345.37 148.53 344.62 145.37C343.975 142.119 344.392 138.746 345.81 135.75C346.51 134.32 347.17 132.88 347.81 131.41C348.45 129.94 349.07 128.45 349.6 126.96Z" fill="#C44C22"/>
<path d="M355.64 121.4C353.775 120.974 351.859 120.822 349.95 120.95C349.047 120.972 348.16 121.189 347.349 121.586C346.537 121.983 345.822 122.551 345.25 123.25C344.987 123.605 344.768 123.991 344.6 124.4L344.04 125.74C343.64 126.62 343.27 127.51 342.86 128.39L342.25 129.7C342.019 130.09 341.866 130.521 341.8 130.97C341.753 131.433 341.83 131.901 342.023 132.324C342.216 132.748 342.519 133.112 342.9 133.38C342.435 133.166 342.039 132.826 341.758 132.398C341.477 131.97 341.321 131.472 341.31 130.96C341.318 130.44 341.43 129.926 341.64 129.45L342.14 128.09C342.46 127.18 342.82 126.28 343.14 125.37L343.68 124.02C343.868 123.532 344.121 123.072 344.43 122.65C345.066 121.804 345.92 121.148 346.9 120.75C347.857 120.379 348.874 120.186 349.9 120.18C351.879 120.171 353.836 120.587 355.64 121.4Z" fill="#C44C22"/>
<path d="M364.83 122.25C364.09 120.96 363.39 119.65 362.67 118.35C362.31 117.7 361.98 117.04 361.67 116.35C361.369 115.702 360.979 115.1 360.51 114.56C359.567 113.522 358.322 112.805 356.95 112.51C356.239 112.395 355.521 112.328 354.8 112.31L352.58 112.16C352.131 112.119 351.679 112.119 351.23 112.16C350.797 112.215 350.369 112.306 349.95 112.43C349.112 112.691 348.328 113.105 347.64 113.65L347.34 113.76C347.442 113.759 347.541 113.724 347.62 113.66L347.51 113.74L347.59 113.68L344.59 116.08C344.354 116.25 344.133 116.441 343.93 116.65C343.66 116.964 343.488 117.35 343.434 117.76C343.381 118.171 343.449 118.588 343.63 118.96C343.884 119.482 344.327 119.888 344.869 120.096C345.411 120.304 346.012 120.298 346.55 120.08L350.03 118.43C348.93 119.12 347.85 119.77 346.72 120.43C346.075 120.751 345.331 120.807 344.645 120.587C343.959 120.366 343.387 119.887 343.05 119.25C342.689 118.601 342.599 117.835 342.8 117.12C342.9 116.759 343.066 116.42 343.29 116.12C343.518 115.851 343.772 115.606 344.05 115.39L347.05 112.91L347.14 112.86H347.07C347.168 112.784 347.287 112.742 347.41 112.74L347.11 112.84C347.885 112.207 348.775 111.728 349.73 111.43C350.671 111.12 351.664 111.005 352.65 111.09L354.87 111.26C355.612 111.34 356.348 111.473 357.07 111.66C358.617 112.019 359.996 112.894 360.98 114.14C361.458 114.75 361.848 115.423 362.14 116.14C362.44 116.81 362.76 117.48 363.05 118.14C363.66 119.52 364.27 120.87 364.83 122.25Z" fill="#C44C22"/>
<path d="M405.84 157.71C404.408 158.335 403.021 159.06 401.69 159.88C400.348 160.673 399.055 161.548 397.82 162.5C396.577 163.439 395.382 164.44 394.24 165.5C393.09 166.5 392.03 167.68 390.98 168.81L390.82 168.98H390.6L390.97 168.81C389.256 170.759 387.691 172.835 386.29 175.02C385.59 176.12 384.94 177.25 384.29 178.39C383.64 179.53 383.12 180.73 382.54 181.91C382.93 180.65 383.37 179.41 383.88 178.2C384.39 176.99 385.01 175.81 385.64 174.65C386.923 172.329 388.452 170.154 390.2 168.16L390.34 168H390.58L390.21 168.16C392.308 165.771 394.696 163.655 397.32 161.86C398.634 160.979 400 160.178 401.41 159.46C402.827 158.736 404.311 158.15 405.84 157.71Z" fill="#A51E1E"/>
<path d="M290.45 128.28C290 132.28 289.45 136.35 288.88 140.38C288.31 144.41 287.66 148.38 287.05 152.44C286.74 154.44 286.42 156.44 286.29 158.44C286.16 160.44 286.13 162.44 286.07 164.5L285.93 170.6C285.85 172.6 285.8 174.66 285.69 176.7C285.58 174.7 285.53 172.63 285.44 170.6L285.3 164.5C285.152 160.408 285.41 156.311 286.07 152.27C286.76 148.27 287.4 144.27 288.12 140.27L289.23 134.27C289.64 132.26 290.01 130.27 290.45 128.28Z" fill="#A51E1E"/>
<path d="M309.158 309C309.386 310.496 309.53 311.993 309.657 313.494C309.784 314.996 309.851 316.493 309.919 317.989C309.986 319.485 310.012 320.993 309.995 322.494L309.953 324.747C309.953 325.498 309.902 326.249 309.834 327C309.708 326.249 309.64 325.498 309.539 324.753L309.344 322.506C309.209 321.004 309.141 319.507 309.074 318.006C309.006 316.504 308.989 315.007 309.006 313.506C309.023 312.004 309.04 310.502 309.158 309Z" fill="#3660C9"/>
<path d="M374 312C374 312 375.917 322.02 376.688 331.795C376.881 334.263 377 336.723 377 339" fill="#3660C9"/>
<path d="M344.91 313.76C345.225 315.481 345.742 317.16 346.45 318.76C347.137 320.351 347.999 321.86 349.02 323.26C351.055 326.051 353.707 328.334 356.77 329.93C359.857 331.505 363.187 332.549 366.62 333.02C367.48 333.17 368.35 333.23 369.21 333.34L371.83 333.49L374.45 333.54C375.33 333.54 376.21 333.49 377.09 333.49C373.594 334.04 370.042 334.141 366.52 333.79C362.955 333.444 359.487 332.426 356.3 330.79C353.104 329.123 350.383 326.674 348.39 323.67C346.399 320.72 345.201 317.307 344.91 313.76Z" fill="#3660C9"/>
<path d="M285 316C286.291 315.446 287.507 314.737 288.621 313.89C289.731 313.059 290.748 312.116 291.657 311.076C293.467 308.953 294.932 306.566 296 304C295.394 306.787 294.088 309.38 292.2 311.54C291.248 312.619 290.152 313.565 288.943 314.354C287.745 315.141 286.407 315.699 285 316Z" fill="#3660C9"/>
<path d="M160.98 78.31C159.839 77.8252 158.724 77.2811 157.64 76.68C157.1 76.39 156.57 76.07 156.04 75.77C155.8 75.6169 155.549 75.48 155.29 75.36C155.043 75.2533 154.785 75.1761 154.52 75.13C153.996 75.0362 153.456 75.074 152.95 75.24C152.691 75.319 152.442 75.4298 152.21 75.57L151.44 76.06C150.401 76.7315 149.326 77.3458 148.22 77.9C149.098 77.0235 150.022 76.1956 150.99 75.42C151.23 75.23 151.45 75.04 151.72 74.84C152.148 74.5295 152.635 74.3084 153.15 74.1899C153.665 74.0713 154.199 74.0577 154.72 74.15C155.391 74.2803 156.023 74.5606 156.57 74.97C157.07 75.32 157.57 75.65 158.09 76.02C159.093 76.7326 160.057 77.4969 160.98 78.31Z" fill="#C44C22"/>
<path d="M157.18 78.8001C154.37 78.9101 151.59 78.6901 148.85 78.5701C148.216 78.505 147.575 78.5845 146.975 78.8028C146.376 79.021 145.834 79.3722 145.39 79.8301C144.323 80.7301 143.213 81.5801 142.06 82.3801C142.95 81.2901 143.88 80.2501 144.86 79.2601C145.347 78.687 145.955 78.2292 146.64 77.9201C147.355 77.638 148.123 77.5184 148.89 77.5701C151.685 77.7239 154.46 78.1356 157.18 78.8001Z" fill="#C44C22"/>
<path d="M154.6 81.3801C148.494 82.5366 142.282 83.0327 136.07 82.8601C142.185 81.7015 148.408 81.2053 154.63 81.3801H154.6Z" fill="#C44C22"/>
<path d="M330.58 85.1101C329.867 87.4207 329.029 89.6907 328.07 91.9101C327.15 94.1401 326.12 96.3101 325.07 98.4701L323.47 101.58C323.408 101.744 323.383 101.92 323.395 102.095C323.407 102.27 323.456 102.441 323.54 102.595C323.623 102.749 323.738 102.884 323.878 102.99C324.018 103.096 324.179 103.171 324.35 103.21C326.617 103.773 328.992 103.735 331.24 103.1C329.129 104.519 326.567 105.103 324.05 104.74C323.634 104.687 323.234 104.543 322.88 104.318C322.526 104.094 322.225 103.794 322 103.44C321.77 103.071 321.623 102.656 321.57 102.224C321.516 101.793 321.557 101.354 321.69 100.94L321.81 100.63L321.91 100.42L322.11 100.02L322.5 99.2001L323.28 97.5801C324.36 95.4401 325.47 93.3001 326.68 91.2201C327.866 89.1132 329.168 87.0734 330.58 85.1101Z" fill="#C44C22"/>
<path d="M319.85 108.53C321.56 109.577 323.432 110.33 325.39 110.76C327.312 111.194 329.302 111.235 331.24 110.88C331.72 110.81 332.19 110.64 332.66 110.53C332.9 110.46 333.14 110.42 333.37 110.33L334.05 110.05C334.514 109.885 334.968 109.695 335.41 109.48L336.72 108.76C337.158 108.528 337.576 108.26 337.97 107.96L339.21 107.1C340 106.48 340.74 105.79 341.55 105.17C340.9 105.95 340.22 106.71 339.55 107.47L338.38 108.47C338.001 108.822 337.59 109.137 337.15 109.41C335.437 110.611 333.492 111.442 331.44 111.85C329.368 112.23 327.236 112.11 325.22 111.5C323.225 110.937 321.387 109.921 319.85 108.53Z" fill="#C44C22"/>
<path d="M340.81 84.4601C341.909 84.0068 343.092 83.7953 344.28 83.8401C345.484 83.8648 346.674 84.1088 347.79 84.5601C348.937 85.0178 349.963 85.7328 350.79 86.6501C351.633 87.5405 352.163 88.6814 352.3 89.9001C351.525 89.1196 350.67 88.4225 349.75 87.8201C348.893 87.2659 347.986 86.7938 347.04 86.4101C344.997 85.6559 342.918 85.0051 340.81 84.4601Z" fill="#3E2B7C"/>
<path d="M321.07 76.02C321.84 75.706 322.669 75.5627 323.5 75.6001C324.308 75.6262 325.107 75.7745 325.87 76.0401C326.647 76.3204 327.373 76.7257 328.02 77.2401C328.681 77.7808 329.179 78.4937 329.46 79.3C328.62 79.07 327.93 78.83 327.24 78.61C326.55 78.39 325.88 78.1701 325.24 77.9301C324.6 77.6901 323.89 77.44 323.24 77.14C322.509 76.831 321.807 76.4597 321.14 76.03L321.07 76.02Z" fill="#3E2B7C"/>
<path d="M388.56 79.7099C388.218 80.2931 387.908 80.8939 387.63 81.5099C387.149 82.6594 386.764 83.8468 386.48 85.0599C386.48 85.1199 386.48 85.1799 386.48 85.2399C386.48 85.2999 386.48 85.3699 386.48 85.4299C386.121 86.918 386.08 88.465 386.36 89.9699C386.743 91.4646 386.892 93.0097 386.8 94.5499C386.61 97.9999 385.07 102.47 378.95 104.37L377.58 102.43L377.51 102.33L377.44 102.23L371.28 93.6599L367.74 96.5299L367.61 96.6299L367.47 96.7399L362.57 100.74C362.771 98.705 362.636 96.651 362.17 94.6599C361.736 92.8253 360.981 91.0818 359.94 89.5099L359.43 88.7899C358.185 87.2041 356.576 85.9418 354.74 85.1099C346.74 81.2699 347.58 74.0099 347.58 74.0099C348.63 69.4999 346.98 67.2999 345.69 66.3099C345.075 65.866 344.354 65.5902 343.6 65.5099C342.263 65.331 340.967 64.9216 339.77 64.2999C338.586 63.6859 337.594 62.759 336.9 61.6199C335.883 60.0087 335.525 58.068 335.9 56.1999L335.96 55.9399C335.99 55.8442 336.027 55.7506 336.07 55.6599C336.122 55.452 336.188 55.2481 336.27 55.0499C336.803 53.6956 337.765 52.5537 339.01 51.7999C339.673 51.3861 340.41 51.1043 341.18 50.9699C341.77 50.8717 342.375 50.9233 342.94 51.1199L343.67 51.3699C347.175 52.4162 350.941 52.1459 354.26 50.6099L354.51 50.4999C355.252 50.1553 355.964 49.7507 356.64 49.2899H356.69C356.91 49.1399 357.14 48.9799 357.35 48.8199C358.663 47.8306 360.129 47.0637 361.69 46.5499C362.119 46.4075 362.557 46.2907 363 46.1999L363.27 46.1399C364.009 45.9965 364.758 45.9129 365.51 45.8899C368.515 45.7998 371.46 46.746 373.85 48.5699C376.236 50.4108 377.984 52.9534 378.85 55.8399C379.597 58.4918 381.111 60.8642 383.2 62.6599C384.437 63.6059 385.547 64.7084 386.5 65.9399C388.74 68.9899 391.58 74.4399 388.56 79.7099Z" fill="#3E2B7C"/>
<path d="M361.69 46.55C360.129 47.0638 358.663 47.8307 357.35 48.82C357.17 48.96 356.98 49.09 356.79 49.22L356.69 49.29H356.64H356.59C355.893 49.7648 355.157 50.1796 354.39 50.53C351.037 52.1069 347.222 52.3952 343.67 51.34L342.94 51.09C342.42 50.9117 341.866 50.8536 341.32 50.92H341.18H341.04C340.331 51.0649 339.654 51.3359 339.04 51.72C337.833 52.4479 336.893 53.5456 336.36 54.85L336.31 54.97C336.306 55.0133 336.306 55.0568 336.31 55.1C336.222 55.3352 336.148 55.5757 336.09 55.82C335.854 56.779 335.812 57.7755 335.967 58.7509C336.121 59.7263 336.469 60.661 336.99 61.5C331.22 65.8 327.14 66.81 324.27 66.27C318.73 65.27 317.72 58.45 317.72 58.45C317.716 58.3734 317.716 58.2966 317.72 58.22V57.83C317.21 52.18 319.47 49.1 321.9 47.43C323.982 46.051 326.475 45.4329 328.96 45.68C330.24 45.7867 331.44 45.8467 332.56 45.86H333.06C339.67 45.86 343.58 44.51 345.16 43.81L345.44 43.69L345.58 43.63L345.74 43.57C346.973 43.0431 348.266 42.6703 349.59 42.46C351.788 42.1042 354.039 42.2909 356.148 43.0037C358.256 43.7165 360.159 44.934 361.69 46.55Z" fill="#3E2B7C"/>
<path d="M363.6 83.1799C362.95 82.3399 362.29 81.5799 361.66 80.8399C359.44 78.2599 357.53 76.0299 357.23 72.0999C356.86 67.5499 355.43 65.0999 351.93 63.0099C349.88 61.7999 347.67 61.7899 345.53 61.7799C343.811 61.8669 342.089 61.6572 340.44 61.1599C339.343 60.7035 338.375 59.984 337.621 59.0649C336.868 58.1458 336.352 57.0554 336.12 55.8899C336.115 55.8434 336.115 55.7964 336.12 55.7499C336.092 55.8285 336.069 55.9086 336.05 55.9899L335.99 56.2499C336.256 57.4086 336.797 58.4865 337.566 59.3931C338.335 60.2997 339.31 61.0084 340.41 61.4599C342.081 61.9646 343.827 62.1777 345.57 62.0899C347.68 62.0899 349.86 62.0899 351.86 63.2899C355.27 65.2899 356.67 67.7299 357.03 72.1799C357.34 76.1799 359.28 78.4499 361.52 81.0599C362.15 81.7999 362.8 82.5599 363.45 83.3999C365.102 85.5955 366.292 88.1024 366.95 90.7699C367.472 92.7006 367.668 94.7047 367.53 96.6999C367.535 96.7397 367.535 96.7801 367.53 96.8199L367.67 96.7099L367.8 96.6099C367.92 94.6237 367.718 92.6312 367.2 90.7099C366.521 87.9827 365.296 85.4213 363.6 83.1799ZM379.22 92.8899C378.726 90.8951 377.774 89.0429 376.44 87.4799C375.56 86.4799 374.56 85.4799 373.49 84.4799C370.31 81.3899 367.02 78.1799 366.97 73.9899C366.97 72.6299 367.03 71.2199 367.11 69.8499C367.39 65.0599 367.67 60.1099 363.69 56.3799C362.273 55.1734 360.698 54.1643 359.01 53.3799L358.5 53.1199C357.054 52.4452 355.708 51.5736 354.5 50.5299L354.25 50.6399C355.48 51.7117 356.853 52.6069 358.33 53.2999L358.85 53.5699C360.517 54.3257 362.072 55.3083 363.47 56.4899C367.37 60.1499 367.08 65.0299 366.81 69.7599C366.73 71.1299 366.64 72.5499 366.67 73.9199C366.73 78.2199 370.05 81.4599 373.27 84.5899C374.33 85.5899 375.33 86.5899 376.2 87.5899C377.502 89.1291 378.436 90.9453 378.93 92.8999C379.072 93.4927 379.175 94.0939 379.24 94.6999C379.41 96.5199 379.24 100.42 377.3 102.18L377.37 102.28L377.44 102.38C379.44 100.56 379.65 96.5499 379.44 94.6899C379.413 94.0851 379.34 93.4833 379.22 92.8899ZM382.61 80.3399C381.97 79.7099 381.29 79.1099 380.61 78.5399C379.438 77.5847 378.363 76.5162 377.4 75.3499C374.83 72.0299 375.19 68.4799 375.57 64.7099C375.735 63.3223 375.828 61.9271 375.85 60.5299C375.85 54.5299 372.12 51.9799 367.26 49.2099C365.762 48.4222 364.409 47.3839 363.26 46.1399L362.99 46.1999V46.2499C364.166 47.54 365.556 48.6161 367.1 49.4299C371.88 52.1599 375.55 54.7099 375.56 60.5299C375.538 61.9204 375.445 63.3089 375.28 64.6899C374.89 68.4999 374.53 72.1099 377.16 75.5099C378.139 76.6838 379.227 77.762 380.41 78.7299C381.07 79.2999 381.75 79.8899 382.41 80.5199C383.895 81.9528 385.205 83.5574 386.31 85.2999C386.337 85.3411 386.361 85.3846 386.38 85.4299C386.38 85.3699 386.38 85.2999 386.38 85.2399C386.38 85.1799 386.38 85.1199 386.38 85.0599C385.305 83.3496 384.041 81.7662 382.61 80.3399Z" fill="#5E4DDB"/>
<path d="M336.26 54.96C334.17 55.11 332.26 56.52 330.26 57.96C329.114 58.8629 327.904 59.6817 326.64 60.41C323.52 62.09 319.78 60.34 317.64 58C317.606 57.9608 317.569 57.9241 317.53 57.89V58.28C319.177 60.1009 321.478 61.1972 323.93 61.33C324.907 61.3367 325.871 61.0959 326.73 60.63C328.007 59.8998 329.227 59.0741 330.38 58.16C332.32 56.7 334.15 55.32 336.15 55.16C336.145 55.1167 336.145 55.0732 336.15 55.03L336.2 54.91L336.26 54.96ZM341.26 50.96C339.723 49.4715 337.899 48.3113 335.9 47.55C334.9 47.07 333.9 46.55 332.9 46.01H332.4L332.58 46.13C333.626 46.7374 334.704 47.2882 335.81 47.78C337.751 48.5294 339.528 49.6503 341.04 51.08H341.18H341.32L341.26 50.96ZM356.77 49.25C355.406 47.9098 353.778 46.8678 351.99 46.19C351.34 45.89 350.48 45.6 349.57 45.29C348.197 44.8747 346.859 44.3497 345.57 43.72L345.41 43.78L345.27 43.84L345.35 43.89C346.683 44.5471 348.068 45.0956 349.49 45.53C350.39 45.83 351.25 46.12 351.89 46.41C353.636 47.09 355.23 48.1097 356.58 49.41H356.63H356.68L356.78 49.34L356.77 49.25Z" fill="#5E4DDB"/>
<path d="M377.77 53.22C376.751 51.4429 375.364 49.905 373.7 48.71C372.053 47.5329 370.157 46.7494 368.16 46.42C366.177 46.1012 364.146 46.2484 362.23 46.85C361.27 47.1144 360.346 47.4974 359.48 47.99C358.598 48.4892 357.752 49.0506 356.95 49.67H356.9C354.383 51.423 351.406 52.3968 348.34 52.47C346.812 52.5048 345.288 52.3058 343.82 51.88C343.45 51.78 343.08 51.63 342.74 51.52C342.439 51.4103 342.12 51.3561 341.8 51.36C341.106 51.3622 340.422 51.5229 339.8 51.83C338.521 52.4056 337.467 53.386 336.8 54.6201C336.147 55.8848 335.9 57.3197 336.09 58.7301C336.219 59.8092 336.591 60.8452 337.176 61.761C337.761 62.6769 338.545 63.449 339.47 64.02C340.1 64.39 340.79 64.66 341.47 65.02C340.79 64.74 340.07 64.53 339.4 64.2C338.74 63.8411 338.136 63.3862 337.61 62.85C336.561 61.745 335.864 60.3524 335.61 58.85C335.348 57.3187 335.565 55.744 336.23 54.34C336.923 52.9223 338.076 51.7805 339.5 51.1C340.218 50.7397 341.007 50.5417 341.81 50.52C342.231 50.518 342.65 50.5856 343.05 50.72C343.41 50.83 343.73 50.96 344.05 51.05C345.43 51.4313 346.859 51.5999 348.29 51.55C351.168 51.4338 353.959 50.5311 356.36 48.94H356.41C358.059 47.6234 359.952 46.6447 361.98 46.06C364.014 45.4756 366.159 45.3849 368.235 45.7953C370.312 46.2058 372.261 47.1056 373.92 48.42C375.552 49.7059 376.869 51.3477 377.77 53.22Z" fill="#110647"/>
<path d="M224.764 58V57.048L228.754 53.198C229.109 52.862 229.37 52.568 229.538 52.316C229.715 52.0547 229.832 51.8167 229.888 51.602C229.953 51.378 229.986 51.1633 229.986 50.958C229.986 50.454 229.809 50.0573 229.454 49.768C229.099 49.4787 228.581 49.334 227.9 49.334C227.377 49.334 226.906 49.4227 226.486 49.6C226.066 49.768 225.702 50.034 225.394 50.398L224.442 49.572C224.815 49.096 225.315 48.732 225.94 48.48C226.575 48.2187 227.27 48.088 228.026 48.088C228.707 48.088 229.3 48.2 229.804 48.424C230.308 48.6387 230.695 48.9513 230.966 49.362C231.246 49.7727 231.386 50.258 231.386 50.818C231.386 51.1353 231.344 51.448 231.26 51.756C231.176 52.064 231.017 52.3907 230.784 52.736C230.551 53.0813 230.215 53.4687 229.776 53.898L226.22 57.328L225.884 56.782H231.806V58H224.764ZM236.947 58.112C236.182 58.112 235.496 57.916 234.889 57.524C234.292 57.132 233.816 56.5627 233.461 55.816C233.116 55.0693 232.943 54.164 232.943 53.1C232.943 52.036 233.116 51.1307 233.461 50.384C233.816 49.6373 234.292 49.068 234.889 48.676C235.496 48.284 236.182 48.088 236.947 48.088C237.703 48.088 238.385 48.284 238.991 48.676C239.598 49.068 240.074 49.6373 240.419 50.384C240.765 51.1307 240.937 52.036 240.937 53.1C240.937 54.164 240.765 55.0693 240.419 55.816C240.074 56.5627 239.598 57.132 238.991 57.524C238.385 57.916 237.703 58.112 236.947 58.112ZM236.947 56.866C237.461 56.866 237.909 56.726 238.291 56.446C238.683 56.166 238.987 55.746 239.201 55.186C239.425 54.626 239.537 53.9307 239.537 53.1C239.537 52.2693 239.425 51.574 239.201 51.014C238.987 50.454 238.683 50.034 238.291 49.754C237.909 49.474 237.461 49.334 236.947 49.334C236.434 49.334 235.981 49.474 235.589 49.754C235.197 50.034 234.889 50.454 234.665 51.014C234.451 51.574 234.343 52.2693 234.343 53.1C234.343 53.9307 234.451 54.626 234.665 55.186C234.889 55.746 235.197 56.166 235.589 56.446C235.981 56.726 236.434 56.866 236.947 56.866ZM242.127 58V57.048L246.117 53.198C246.472 52.862 246.733 52.568 246.901 52.316C247.079 52.0547 247.195 51.8167 247.251 51.602C247.317 51.378 247.349 51.1633 247.349 50.958C247.349 50.454 247.172 50.0573 246.817 49.768C246.463 49.4787 245.945 49.334 245.263 49.334C244.741 49.334 244.269 49.4227 243.849 49.6C243.429 49.768 243.065 50.034 242.757 50.398L241.805 49.572C242.179 49.096 242.678 48.732 243.303 48.48C243.938 48.2187 244.633 48.088 245.389 48.088C246.071 48.088 246.663 48.2 247.167 48.424C247.671 48.6387 248.059 48.9513 248.329 49.362C248.609 49.7727 248.749 50.258 248.749 50.818C248.749 51.1353 248.707 51.448 248.623 51.756C248.539 52.064 248.381 52.3907 248.147 52.736C247.914 53.0813 247.578 53.4687 247.139 53.898L243.583 57.328L243.247 56.782H249.169V58H242.127ZM249.921 55.592V54.612L254.933 48.2H256.445L251.475 54.612L250.761 54.388H258.587V55.592H249.921ZM255.367 58V55.592L255.409 54.388V52.26H256.725V58H255.367Z" fill="white"/>
</g>
<defs>
<clipPath id="clip0_1546_5595">
<rect width="438.01" height="341.4" fill="white"/>
</clipPath>
</defs>
</svg>
