<svg width="422" height="412" viewBox="0 0 422 412" fill="none" xmlns="http://www.w3.org/2000/svg">
<path d="M211 412C324.409 412 416.346 319.771 416.346 206C416.346 92.2294 324.409 0 211 0C97.5905 0 5.65387 92.2294 5.65387 206C5.65387 319.771 97.5905 412 211 412Z" fill="#F9E7F8"/>
<path d="M28.4539 214.136C28.4539 214.136 8.26563 215.888 7.32298 206.44C6.38133 196.992 20.6905 199.503 31.6136 210.802L28.4539 214.136Z" fill="#FFA822"/>
<path d="M28.5256 212.588C28.5256 212.588 14.3061 198.105 20.9595 191.352C27.6138 184.598 34.8112 197.258 33.1023 212.904L28.5256 212.588Z" fill="#FFA822"/>
<path d="M32.4865 209.778C32.4865 209.778 31.8956 189.458 41.352 189.053C50.8094 188.65 47.4932 202.838 35.6244 213.133L32.4865 209.778Z" fill="#FFA822"/>
<path d="M32.884 214.326C48.1557 235.594 57.3341 261.215 59.05 287.37" stroke="#7A3D2C" stroke-miterlimit="10" stroke-linecap="round" stroke-linejoin="round"/>
<path d="M51.3894 250.134C51.4392 249.834 51.4891 249.534 51.5389 249.224C52.3659 244.466 56.5909 222.794 64.4131 226.343C64.5725 226.413 64.732 226.503 64.8914 226.593C73.9891 231.842 51.3894 250.134 51.3894 250.134Z" fill="#FFA822"/>
<path d="M64.4131 226.344C57.9161 232.212 53.1033 240.648 51.5388 249.225C52.3659 244.467 56.5909 222.795 64.4131 226.344Z" fill="#FF6B3D"/>
<path d="M51.3893 250.135C51.3893 250.135 51.3694 250.135 51.3195 250.145H51.3096C49.5957 250.364 20.7382 253.903 22.8507 243.457C22.9603 242.917 23.1297 242.437 23.3689 242.038C27.4344 234.75 49.2967 248.775 51.2498 250.045C51.2996 250.075 51.3395 250.095 51.3594 250.115C51.3793 250.126 51.3893 250.135 51.3893 250.135Z" fill="#FFA822"/>
<path d="M32.884 207.751C32.884 207.751 48.359 190.207 56.6236 197.348C64.8883 204.489 50.9498 213.79 32.884 213.054V207.751Z" fill="#FFA822"/>
<path d="M29.8001 214.653C29.8001 214.653 12.8862 230.806 5.2603 222.982C-2.36559 215.158 12.3152 207.087 30.2525 209.37L29.8001 214.653Z" fill="#FFA822"/>
<path d="M34.7106 209.04C34.7106 209.04 54.9317 207.718 55.6731 217.185C56.4145 226.651 42.1611 223.835 31.4801 212.306L34.7106 209.04Z" fill="#FFA822"/>
<path d="M34.606 210.587C34.606 210.587 48.5156 225.369 41.7207 231.98C34.9249 238.589 27.9975 225.78 30.0372 210.174L34.606 210.587Z" fill="#FFA822"/>
<path d="M30.5862 213.311C30.5862 213.311 30.7467 233.639 21.2833 233.842C11.8199 234.044 15.4361 219.929 27.5191 209.89L30.5862 213.311Z" fill="#FFA822"/>
<path d="M24.5736 217.822C24.5736 217.822 35.8764 217.568 40.6315 210.212C40.6315 210.212 34.594 198.615 27.8261 201.742C17.7728 206.387 24.5736 217.822 24.5736 217.822Z" fill="#FF6B3D"/>
<path d="M51.4491 250.055C51.4192 250.075 51.3893 250.095 51.3594 250.115C51.3494 250.125 51.3295 250.135 51.3195 250.145H51.3096C49.5957 250.365 20.7382 253.904 22.8507 243.458C22.9603 242.918 23.1297 242.438 23.3689 242.038C25.023 243.867 27.5739 245.027 29.9854 245.867C36.831 248.266 44.0155 249.675 51.2498 250.045C51.3195 250.045 51.3793 250.055 51.4491 250.055Z" fill="#FF6B3D"/>
<path d="M52.0052 312.691C49.8927 317.079 47.3716 321.358 45.0698 325.696C44.3723 327.006 43.6947 328.315 43.057 329.645C41.5423 332.803 39.8583 335.892 36.6099 337.182C24.1741 325.246 16.2024 308.712 14.6081 291.509C13.9205 284.081 14.3689 276.514 12.7646 269.227C11.1603 261.94 6.95528 254.642 0 251.993C0.558017 251.833 1.126 251.703 1.69398 251.623C8.1311 250.644 15.0067 254.422 19.5505 259.221C24.483 264.459 27.2033 271.376 29.3357 278.254C31.4582 285.131 33.1422 292.228 36.4604 298.606C39.7886 304.994 45.0897 310.752 52.0052 312.691Z" fill="#0186CB"/>
<path d="M45.0698 325.696C44.3723 327.005 43.6947 328.315 43.057 329.644C41.5423 332.803 39.8583 335.892 36.6099 337.181C24.1741 325.246 16.2024 308.712 14.6081 291.508C13.9205 284.081 14.3689 276.514 12.7646 269.227C11.1603 261.939 6.95528 254.642 0 251.993C0.558017 251.833 1.126 251.703 1.69398 251.623C2.10253 251.673 2.50111 251.753 2.88973 251.853C12.2066 254.242 18.7533 262.869 22.0815 271.916C25.3997 280.972 26.2268 290.729 28.4987 300.095C30.7806 309.462 34.9458 318.998 42.9274 324.376C43.6249 324.846 44.3424 325.276 45.0698 325.696Z" fill="#015287"/>
<path d="M11.6097 257.232C18.4903 262.618 21.937 271.311 23.8652 279.85C25.7923 288.389 26.5237 297.235 29.4463 305.485C32.369 313.735 38.0587 321.637 46.3801 324.276" stroke="white" stroke-miterlimit="10" stroke-linecap="round" stroke-linejoin="round"/>
<path d="M37.2874 375.407C37.0582 376.317 36.8091 377.216 36.55 378.126C29.4054 376.767 23.1576 372.148 18.7334 366.37C14.2991 360.593 11.529 353.695 9.45635 346.708C3.84629 327.775 3.07902 307.412 7.26414 288.119C7.27411 288.089 7.27411 288.059 7.28407 288.029C20.8758 298.555 31.1991 312.08 36.56 328.444C41.622 343.919 41.333 359.733 37.2874 375.407Z" fill="#01AB92"/>
<path d="M37.2874 375.407C36.7892 374.857 36.3109 374.287 35.8426 373.708C30.1229 366.66 25.7784 357.834 22.1014 348.747C14.3789 329.674 9.32683 308.952 7.26416 288.119C7.27412 288.089 7.27413 288.059 7.28409 288.029C20.8758 298.555 31.1991 312.08 36.56 328.444C41.622 343.919 41.3331 359.733 37.2874 375.407Z" fill="#01CBAD"/>
<path d="M10.7847 300.51C14.6948 323.421 21.7666 345.788 31.7342 366.772" stroke="white" stroke-miterlimit="10" stroke-linecap="round" stroke-linejoin="round"/>
<path d="M118.219 147.88C110.68 139.361 75.3331 163.246 72.0369 186.443L85.4671 194.471C85.4671 194.471 125.96 156.627 118.219 147.88Z" fill="#FEAEA3"/>
<path d="M109.084 174.238C109.084 174.238 147.397 156.385 141.218 146.465C135.039 136.547 82.5018 172.965 82.5018 172.965L95.2425 181.739L109.084 174.238Z" fill="#FEAEA3"/>
<path d="M157.142 157.997C150.455 167.644 126.002 179.03 126.002 179.03L117.622 183.578L112.161 186.537L105.166 172.832C105.166 172.832 151.96 141.344 158.138 151.26C159.384 153.259 158.826 155.568 157.142 157.997Z" fill="#FEAEA3"/>
<path d="M157.141 157.998C150.455 167.644 126.002 179.03 126.002 179.03L117.622 183.579L115.868 180.14C115.868 180.14 141.308 163.016 157.141 157.998Z" fill="#E88E82"/>
<path d="M140.094 186.97C140.094 186.97 178.407 169.116 172.227 159.198C166.048 149.28 119.257 180.771 119.257 180.771L126.251 194.471L140.094 186.97Z" fill="#FEAEA3"/>
<path d="M70.6368 249.209V195.607C70.6368 195.607 69.8955 169.189 97.3319 166.053C120.566 163.908 131.989 181.514 131.989 181.514C131.989 181.514 149.735 171.129 153.689 177.809C157.644 184.49 141.33 200.339 123.039 207.54L135.892 241.395L70.6368 249.209Z" fill="#FED3CD"/>
<path d="M70.6388 239.383H77.4347V193.774C77.4347 193.774 76.8667 173.482 95.1916 166.354C69.9313 170.583 70.6388 195.604 70.6388 195.604V239.383Z" fill="#E88E82"/>
<path d="M169.508 301.035L97.7227 302.334L73.5984 302.774L64.7001 238.048L88.1069 232.37L138.119 220.225L169.508 301.035Z" fill="#015287"/>
<path d="M169.507 301.035L97.7226 302.334L88.1068 232.37L138.119 220.225L169.507 301.035Z" fill="#0186CB"/>
<path d="M188.968 190.442C201.579 213.436 208.246 239.677 208.144 265.922" stroke="#7A3D2C" stroke-miterlimit="10" stroke-linecap="round" stroke-linejoin="round"/>
<path d="M221.921 286.96V343.559H191.978C182.87 326.605 174.231 308.872 168.621 290.459C165.721 280.912 166.06 270.406 169.567 261.08C171.201 256.721 173.543 252.423 173.433 247.774C173.334 243.366 171.012 239.308 168.282 235.859C165.551 232.41 162.333 229.321 159.951 225.623C153.295 215.306 154.451 200.592 162.582 191.415C162.702 191.275 162.831 191.125 162.961 190.985C160.3 197.633 165.173 206.62 169.986 211.908C174.799 217.196 181.196 220.704 187.025 224.843C192.854 228.971 198.455 234.219 200.318 241.127C201.912 247.055 200.537 253.342 200.946 259.46C201.763 271.666 210.392 282.981 221.921 286.96Z" fill="#01CBAD"/>
<path d="M221.921 321.158V343.56H191.978C182.87 326.606 174.231 308.873 168.621 290.459C165.721 280.913 166.06 270.407 169.567 261.08C171.201 256.722 173.543 252.424 173.433 247.775C173.334 243.367 171.012 239.308 168.282 235.86C165.551 232.411 162.333 229.322 159.951 225.623C153.295 215.307 154.451 200.593 162.582 191.416C158.347 204.711 162.452 220.605 173.174 229.652C178.167 233.87 184.414 236.769 188.261 242.067C193.662 249.505 192.964 259.651 191.35 268.708C189.745 277.764 187.493 287.271 190.493 295.957C193.622 305.014 201.862 311.302 210.352 315.7C214.119 317.659 218.045 319.369 221.921 321.158Z" fill="#01AB92"/>
<path d="M161.398 210.277C161.469 217.209 167.161 222.702 172.882 226.589C178.602 230.477 185.085 233.957 188.393 240.042C191.206 245.216 191.219 251.474 190.306 257.296C189.391 263.118 187.626 268.804 187.113 274.675C186.341 283.511 188.522 292.583 193.227 300.093C197.932 307.604 205.133 313.511 213.404 316.646" stroke="white" stroke-miterlimit="10" stroke-linecap="round" stroke-linejoin="round"/>
<path d="M412.633 325.775C412.593 326.485 412.544 327.195 412.464 327.905C410.252 351.186 393.591 372.568 371.48 380.135C372.735 373.798 374.917 367.71 377.837 361.962C385.47 346.968 398.145 334.332 412.633 325.775Z" fill="#FFA822"/>
<path d="M412.464 327.905C410.252 351.187 393.591 372.569 371.48 380.136C372.735 373.798 374.917 367.711 377.837 361.963C392.784 354.985 405.429 342.83 412.464 327.905Z" fill="#FF6B3D"/>
<path d="M373.003 369.522C386.23 361.973 397.5 351.006 405.423 337.971" stroke="white" stroke-miterlimit="10" stroke-linecap="round" stroke-linejoin="round"/>
<path d="M413.839 229.632C413.749 236.04 415.653 242.287 416.928 248.575C418.203 254.863 418.811 261.62 416.28 267.508C412.713 275.815 403.854 280.453 398.513 287.731C392.236 296.258 391.349 307.583 391.807 318.169C392.276 328.766 393.85 339.502 391.628 349.868C389.406 360.234 382.211 370.46 371.798 372.24C375.416 364.572 375.196 356.365 374.25 347.928C374.12 346.789 373.971 345.659 373.801 344.53C372.775 337.252 371.191 330.045 370.682 322.718C369.198 301.236 377.548 279.264 392.923 264.239C397.099 260.161 401.881 256.402 404.373 251.114C406.585 246.426 406.734 241.048 406.864 235.86C406.983 230.662 407.163 225.294 409.415 220.615C411.418 216.487 415.702 213.218 420.186 213.068C420.794 213.028 421.392 213.068 422 213.158C416.46 216.357 413.929 223.215 413.839 229.632Z" fill="#01CBAD"/>
<path d="M413.839 229.632C413.749 236.04 415.653 242.287 416.928 248.575C418.204 254.863 418.811 261.62 416.28 267.508C412.713 275.815 403.855 280.453 398.514 287.731C392.236 296.258 391.349 307.583 391.807 318.169C392.276 328.766 393.85 339.502 391.628 349.868C389.406 360.234 382.211 370.46 371.798 372.24C375.416 364.572 375.196 356.365 374.25 347.928C374.12 346.789 373.971 345.659 373.801 344.53C374.688 343.01 375.465 341.441 376.133 339.841C380.318 329.795 381.036 318.709 382.53 307.923C384.025 297.137 386.576 285.981 393.581 277.674C398.663 271.657 405.897 267.348 409.395 260.291C412.275 254.473 412.155 247.675 411.806 241.198C411.448 234.71 410.939 228.003 413.171 221.915C414.467 218.346 417.008 215.048 420.186 213.068C420.794 213.028 421.392 213.068 422 213.158C416.46 216.357 413.929 223.215 413.839 229.632Z" fill="#01AB92"/>
<path d="M370.362 352.447C378.439 344.917 381.38 333.367 382.469 322.36C383.556 311.353 383.202 300.077 386.341 289.474C390.09 276.811 398.92 265.74 410.413 259.292" stroke="white" stroke-miterlimit="10" stroke-linecap="round" stroke-linejoin="round"/>
<path d="M360.683 390.115H237.861C229.175 390.115 222.133 383.051 222.133 374.337V129.564C222.133 120.851 229.175 113.786 237.861 113.786H360.683C369.369 113.786 376.411 120.851 376.411 129.564V374.337C376.411 383.051 369.369 390.115 360.683 390.115Z" fill="#591758"/>
<path d="M342.404 390.115H222.133C212.743 390.115 205.13 382.478 205.13 373.058V130.844C205.13 121.423 212.743 113.786 222.133 113.786H342.404C351.795 113.786 359.408 121.423 359.408 130.844V373.058C359.408 382.479 351.796 390.115 342.404 390.115Z" fill="#91268F"/>
<path d="M352.154 362.823V130.844C352.154 125.451 347.781 121.063 342.405 121.063H222.133C216.758 121.063 212.384 125.451 212.384 130.844V362.824L352.154 362.823Z" fill="#FFFCF9"/>
<path d="M352.154 241.436V258.314L212.384 359.778V342.9L352.154 241.436Z" fill="#BAE5DC"/>
<path d="M352.154 198.794V204.707L212.384 306.171V300.259L352.154 198.794Z" fill="#BAE5DC"/>
<path d="M352.154 153.243V166.394L212.384 267.858V254.707L352.154 153.243Z" fill="#BAE5DC"/>
<path d="M352.154 130.628V136.531L212.384 238.005V232.092L352.154 130.628Z" fill="#BAE5DC"/>
<path d="M313.706 343.223H250.832C244.609 343.223 239.562 338.161 239.562 331.917C239.562 325.673 244.609 320.611 250.832 320.611H313.706C319.93 320.611 324.976 325.673 324.976 331.917C324.976 338.161 319.931 343.223 313.706 343.223Z" fill="#0186CB"/>
<path d="M286.746 385.663C291.911 385.663 296.098 381.463 296.098 376.282C296.098 371.101 291.911 366.9 286.746 366.9C281.581 366.9 277.394 371.101 277.394 376.282C277.394 381.463 281.581 385.663 286.746 385.663Z" fill="#015287"/>
<path d="M328.142 222.624H236.403V298.797H328.142V222.624Z" fill="#FF6B3D"/>
<path d="M273.817 222.624L236.403 260.167V242.216L255.922 222.624H273.817Z" fill="#D65A33"/>
<path d="M310.729 222.624L236.403 297.177V279.225L292.834 222.624H310.729Z" fill="#D65A33"/>
<path d="M328.142 224.234V242.186L271.7 298.797H253.806L328.142 224.234Z" fill="#D65A33"/>
<path d="M328.142 261.253V279.204L308.612 298.796H290.718L328.142 261.253Z" fill="#D65A33"/>
<path d="M288.301 222.624H276.243V298.797H288.301V222.624Z" fill="#FFA822"/>
<path d="M283.806 215.686C283.806 215.686 296.839 193.366 309.184 201.981C310.893 203.173 312.277 204.831 312.953 206.806C316.795 218.026 295.708 222.623 283.806 222.623V219.67C283.806 219.67 298.994 218.256 304.141 213.232C306.589 210.843 304.11 206.701 300.848 207.713C294.04 209.826 283.806 218.765 283.806 218.765V215.686Z" fill="#FFA822"/>
<path d="M280.738 215.686C280.738 215.686 267.706 193.366 255.36 201.981C253.652 203.173 252.268 204.831 251.592 206.806C247.749 218.026 268.836 222.623 280.738 222.623V219.67C280.738 219.67 265.55 218.256 260.403 213.232C257.956 210.843 260.434 206.701 263.697 207.713C270.505 209.826 280.738 218.765 280.738 218.765V215.686Z" fill="#FFA822"/>
<path d="M286.642 220.226C289.191 228.709 296.03 235.773 304.408 238.578C302.724 238.947 300.654 239.294 298.97 239.662C299.03 241.051 299.437 242.731 299.496 244.121C291.117 239.536 284.594 230.825 283.65 221.297C284.613 221.055 285.68 220.467 286.642 220.226Z" fill="#FFC469"/>
<path d="M277.902 220.226C275.353 228.709 268.515 235.773 260.136 238.578C261.819 238.947 263.89 239.294 265.574 239.662C265.514 241.051 265.108 242.731 265.048 244.121C273.427 239.536 279.95 230.825 280.895 221.297C279.931 221.055 278.865 220.467 277.902 220.226Z" fill="#FFC469"/>
<path d="M288.301 214.131C288.301 211.238 276.243 211.238 276.243 214.131L278.249 222.624H286.295L288.301 214.131Z" fill="#FFC469"/>
<path d="M292.295 164.534C291.435 162.445 289.051 161.107 286.827 161.465C284.601 161.823 282.434 163.797 282.27 166.052C282.105 163.797 279.937 161.823 277.713 161.465C275.488 161.106 273.104 162.445 272.244 164.534C271.228 167.004 272.353 169.953 274.296 171.781C276.239 173.61 279.607 175.232 282.271 175.232C284.934 175.232 288.302 173.609 290.245 171.781C292.186 169.953 293.311 167.004 292.295 164.534Z" fill="#5A6FD6"/>
<path d="M337.848 191.951C338.034 189.243 336.182 186.526 333.597 185.72C331.012 184.915 327.63 185.877 326.253 188.214C327.276 185.701 325.994 182.417 323.791 180.839C321.588 179.262 318.312 179.425 316.274 181.212C313.865 183.325 313.507 187.101 314.624 190.108C315.741 193.115 318.501 196.665 321.367 198.092C324.232 199.518 328.72 199.576 331.783 198.651C334.847 197.723 337.627 195.153 337.848 191.951Z" fill="#5A6FD6"/>
<path d="M226.69 191.951C226.503 189.243 228.356 186.526 230.941 185.72C233.525 184.915 236.908 185.877 238.285 188.214C237.263 185.701 238.544 182.417 240.747 180.839C242.95 179.262 246.227 179.425 248.265 181.212C250.673 183.325 251.032 187.101 249.915 190.108C248.798 193.115 246.038 196.665 243.172 198.092C240.306 199.518 235.819 199.576 232.756 198.651C229.692 197.723 226.911 195.153 226.69 191.951Z" fill="#5A6FD6"/>
<path d="M329.606 213.045C329.606 213.045 344.414 202.326 345.842 204.098C347.269 205.87 329.606 213.045 329.606 213.045Z" fill="#015287"/>
<path d="M329.327 179.876C329.327 179.876 339.861 164.912 341.784 166.123C343.708 167.333 329.327 179.876 329.327 179.876Z" fill="#015287"/>
<path d="M303.027 177.809C303.027 177.809 324.381 142.876 327.404 144.595C330.428 146.312 303.027 177.809 303.027 177.809Z" fill="#015287"/>
<path d="M234.932 213.045C234.932 213.045 220.125 202.326 218.697 204.098C217.27 205.87 234.932 213.045 234.932 213.045Z" fill="#015287"/>
<path d="M235.211 179.876C235.211 179.876 224.677 164.912 222.754 166.123C220.83 167.333 235.211 179.876 235.211 179.876Z" fill="#015287"/>
<path d="M261.511 177.809C261.511 177.809 240.157 142.876 237.134 144.595C234.111 146.312 261.511 177.809 261.511 177.809Z" fill="#015287"/>
<path d="M282.269 157.193C282.269 157.193 280.066 140.299 281.896 140.299C283.728 140.299 282.269 157.193 282.269 157.193Z" fill="#015287"/>
<path d="M127.801 261.329C123.851 257.28 119.902 253.23 115.952 249.181C114.295 247.482 112.581 245.743 110.409 244.793C108.236 243.845 105.468 243.867 103.728 245.48C101.842 247.229 101.883 250.635 103.809 252.339C105.735 254.044 109.109 253.658 110.604 251.563C114.261 255.097 117.459 258.643 121.116 262.178C123.343 261.918 125.573 261.588 127.801 261.329Z" fill="#2B2B3B"/>
<path d="M183.178 289.251L117.164 270.282L51.1492 289.251C35.5586 301.232 24.0645 329.851 24.0645 366.903C24.0645 402.955 117.164 400.794 117.164 400.794C117.164 400.794 210.263 402.955 210.263 366.903C210.263 329.851 198.769 301.232 183.178 289.251Z" fill="#FF6B3D"/>
<path d="M175.337 287.087L117.165 270.282L58.9913 287.087C45.2521 297.7 35.1241 323.055 35.1241 355.878C35.1241 387.817 117.165 385.902 117.165 385.902C117.165 385.902 199.205 387.817 199.205 355.878C199.204 323.054 189.076 297.7 175.337 287.087Z" fill="#FFA822"/>
<path d="M205.838 289.18C205.669 294.908 202.022 300.256 197.04 303.065C192.047 305.874 185.929 306.294 180.399 304.844C172.856 302.865 166.598 297.757 159.872 293.828C147.067 286.341 131.971 283.302 117.164 283.302C102.356 283.302 87.2598 286.341 74.4554 293.828C67.7293 297.757 61.4715 302.865 53.9283 304.844C48.398 306.294 42.2797 305.874 37.2875 303.065C32.3052 300.256 28.6581 294.908 28.4887 289.18C28.4489 287.68 28.6581 286.181 29.1065 284.741C30.3521 280.673 33.4112 277.164 37.4369 275.885C42.8876 274.155 49.5738 277.154 51.4073 282.592C69.5528 267.278 93.5276 258.961 117.164 259.721C140.8 258.961 164.774 267.278 182.93 282.592C184.753 277.154 191.44 274.155 196.89 275.885C200.916 277.164 203.975 280.673 205.231 284.741C205.669 286.181 205.878 287.68 205.838 289.18Z" fill="#14141C"/>
<path d="M205.23 284.741C203.965 288.97 200.906 292.669 197.04 294.858C192.047 297.667 185.929 298.077 180.399 296.627C172.856 294.648 166.598 289.55 159.872 285.611C147.067 278.134 131.971 275.095 117.164 275.095C102.356 275.095 87.2598 278.134 74.4553 285.611C67.7292 289.55 61.4715 294.648 53.9283 296.627C48.3979 298.077 42.2797 297.667 37.2874 294.858C33.4212 292.669 30.362 288.97 29.1065 284.741C30.3521 280.673 33.4112 277.164 37.4369 275.885C42.8875 274.155 49.5738 277.154 51.4072 282.592C69.5527 267.278 93.5275 258.961 117.164 259.721C140.799 258.961 164.774 267.278 182.93 282.592C184.753 277.154 191.439 274.155 196.89 275.885C200.916 277.164 203.975 280.673 205.23 284.741Z" fill="#2B2B3B"/>
<path d="M118.512 377.101V303.929H123.2V377.101H118.512ZM134.29 325.881C133.947 322.984 132.556 320.736 130.117 319.135C127.678 317.534 124.686 316.734 121.142 316.734C118.55 316.734 116.283 317.153 114.339 317.992C112.415 318.83 110.909 319.983 109.823 321.45C108.756 322.918 108.222 324.585 108.222 326.452C108.222 328.015 108.594 329.358 109.337 330.483C110.099 331.588 111.071 332.512 112.253 333.255C113.434 333.979 114.673 334.579 115.968 335.056C117.264 335.513 118.455 335.885 119.541 336.171L125.487 337.771C127.011 338.171 128.707 338.724 130.574 339.429C132.461 340.134 134.262 341.096 135.977 342.316C137.711 343.516 139.14 345.06 140.264 346.946C141.388 348.833 141.95 351.148 141.95 353.892C141.95 357.055 141.121 359.914 139.464 362.467C137.825 365.02 135.424 367.05 132.261 368.555C129.117 370.06 125.296 370.813 120.799 370.813C116.607 370.813 112.977 370.137 109.909 368.784C106.86 367.431 104.459 365.544 102.706 363.124C100.972 360.704 99.9905 357.894 99.7619 354.692H107.079C107.27 356.903 108.013 358.732 109.309 360.18C110.623 361.609 112.281 362.677 114.282 363.382C116.302 364.068 118.474 364.411 120.799 364.411C123.505 364.411 125.934 363.972 128.088 363.096C130.241 362.2 131.946 360.962 133.204 359.38C134.462 357.779 135.09 355.912 135.09 353.778C135.09 351.834 134.547 350.252 133.461 349.033C132.375 347.813 130.946 346.823 129.174 346.06C127.402 345.298 125.487 344.631 123.429 344.059L116.226 342.002C111.652 340.687 108.032 338.81 105.364 336.371C102.696 333.932 101.363 330.74 101.363 326.795C101.363 323.518 102.249 320.66 104.021 318.22C105.812 315.762 108.213 313.857 111.224 312.504C114.253 311.132 117.636 310.446 121.371 310.446C125.144 310.446 128.497 311.122 131.432 312.475C134.366 313.809 136.691 315.638 138.406 317.963C140.14 320.288 141.055 322.927 141.15 325.881H134.29Z" fill="white"/>
<path d="M200.1 215.977C200.1 215.977 212.836 194.817 192.939 172.964C192.939 172.964 181.308 195.791 200.1 215.977Z" fill="#FF6B3D"/>
<path d="M200.1 215.977C200.1 215.977 173.257 219.673 167.418 183.439C167.418 183.439 191.256 189.066 200.1 215.977Z" fill="#FF6B3D"/>
<path d="M200.1 215.977C200.1 215.977 175.204 217.362 180.827 175.232C180.827 175.232 207.045 192.972 200.1 215.977Z" fill="#FFA822"/>
<path d="M302.63 91.8099C295.545 80.7379 281.933 76.4195 270.087 80.654L269.695 80.0412L264.406 83.4469C251.549 91.7269 247.817 108.896 256.071 121.793C264.324 134.691 281.438 138.435 294.295 130.155L299.584 126.749L299.191 126.136C307.961 117.096 309.715 102.882 302.63 91.8099Z" fill="#FFA822"/>
<path d="M296.46 84.9944C295.748 84.4316 295.013 83.9038 294.255 83.4189L251.955 110.66C252.08 111.554 252.252 112.443 252.466 113.328L296.46 84.9944Z" fill="#FFC469"/>
<path d="M303.272 92.8647C303.067 92.5108 302.852 92.1589 302.629 91.8101C301.456 89.9767 300.1 88.3343 298.607 86.8799L253.279 116.071C253.974 118.039 254.896 119.961 256.07 121.794C256.293 122.143 256.525 122.482 256.761 122.817L303.272 92.8647Z" fill="#FFC469"/>
<path d="M306.822 109.916C307.076 107.676 307.069 105.4 306.772 103.14L264.615 130.288C266.541 131.502 268.603 132.45 270.741 133.153L306.822 109.916Z" fill="#FFC469"/>
<path d="M306.382 100.94C306.132 99.7761 305.814 98.6195 305.408 97.481L260.057 126.687C260.919 127.53 261.828 128.308 262.778 129.02L306.382 100.94Z" fill="#FFC469"/>
<path d="M311.384 110.492C315.296 95.6756 306.493 80.4837 291.724 76.56C276.954 72.6364 261.811 81.4667 257.9 96.2832C253.988 111.1 262.791 126.292 277.56 130.215C292.33 134.139 307.473 125.309 311.384 110.492Z" fill="#FFC469"/>
<path d="M299.567 121.104C309.315 112.832 310.533 98.1992 302.288 88.4201C294.043 78.6409 279.456 77.4188 269.708 85.6904C259.96 93.962 258.742 108.595 266.987 118.374C275.232 128.153 289.819 129.375 299.567 121.104Z" fill="#FFA822"/>
<path d="M300.557 120.21C299.525 121.206 298.373 122.113 297.127 122.915C286.383 129.834 272.086 126.701 265.188 115.923C258.292 105.145 261.405 90.7991 272.148 83.8807C273.394 83.078 274.696 82.4052 276.028 81.8784C268.127 89.3856 266.399 101.698 272.491 111.22C278.584 120.741 290.464 124.292 300.557 120.21Z" fill="#FF6B3D"/>
<path d="M280.543 87.9663L294.519 109.808L289.543 113.013L278.941 96.4452L275.763 99.9899L271.814 96.4962L276.188 90.7713L280.543 87.9663Z" fill="white"/>
<path d="M147.204 40.1255L143.869 51.9911C142.571 56.6084 158.632 65.1912 179.742 71.162C200.852 77.1328 219.017 78.2304 220.314 73.6141L223.649 61.7495L147.204 40.1255Z" fill="#FFA822"/>
<path d="M184.675 50.7246L178.992 70.9451C179.243 71.0171 179.49 71.0911 179.743 71.1621C183.574 72.2457 187.304 73.1663 190.857 73.9231L196.442 54.0524L184.675 50.7246Z" fill="#FFC469"/>
<path d="M160.69 43.9399L155.567 62.1682C157.667 63.2068 159.983 64.2515 162.507 65.2831L167.93 45.9882L160.69 43.9399Z" fill="#FFC469"/>
<path d="M170.193 46.6279L164.706 66.1537C166.953 67.0264 169.315 67.8861 171.801 68.7158L177.434 48.6752L170.193 46.6279Z" fill="#FFC469"/>
<path d="M198.704 54.6919L193.166 74.3936C195.95 74.9424 198.612 75.3883 201.098 75.7211L206.397 56.8681L198.704 54.6919Z" fill="#FFC469"/>
<path d="M223.649 61.7482C222.352 66.3655 204.186 65.2679 183.077 59.2961C161.967 53.3253 145.906 44.7425 147.204 40.1252C148.501 35.5089 166.667 36.6065 187.777 42.5773C208.886 48.5481 224.947 57.1309 223.649 61.7482Z" fill="#FFC469"/>
<path d="M184.225 55.2097C167.189 50.3905 156.643 44.8126 152.81 41.7107C157.694 41.0749 169.591 41.8436 186.628 46.6629C203.664 51.4821 214.21 57.06 218.044 60.1619C213.159 60.7977 201.263 60.0289 184.225 55.2097Z" fill="#FFA822"/>
<path d="M217.672 60.2047C212.563 60.7595 200.841 59.9138 184.224 55.2135C167.593 50.5092 157.162 45.0743 153.104 41.9414C161.869 45.0673 172.565 48.519 185.109 52.0677C197.653 55.6154 208.571 58.2764 217.672 60.2047Z" fill="#FF6B3D"/>
<path d="M140.541 125.54C133.203 121.239 120.728 121.204 108.246 126.213C95.7637 131.223 86.7557 139.88 84.4001 148.071L81.6469 149.175L84.6183 156.628C88.5932 166.594 105.615 169.134 122.638 162.302C139.662 155.47 150.24 141.853 146.266 131.887L143.295 124.434L140.541 125.54Z" fill="#FFA822"/>
<path d="M115.67 123.824L129.656 158.896C132.925 157.016 135.836 154.89 138.292 152.617L126.242 122.399C122.901 122.451 119.331 122.924 115.67 123.824Z" fill="#FFC469"/>
<path d="M87.6226 141.534L97.1686 165.471C101.426 166.341 106.398 166.365 111.676 165.447L98.1501 131.53C93.7059 134.515 90.1067 137.964 87.6226 141.534Z" fill="#FFC469"/>
<path d="M108.246 126.213C106.234 127.02 104.325 127.931 102.507 128.91L116.631 164.328C118.619 163.78 120.628 163.109 122.638 162.302C124.103 161.714 125.514 161.073 126.877 160.391L112.63 124.663C111.174 125.113 109.711 125.625 108.246 126.213Z" fill="#FFC469"/>
<path d="M129.657 122.495L140.7 150.186C142.282 148.435 143.611 146.629 144.631 144.806L136.204 123.675C134.213 123.06 132.008 122.67 129.657 122.495Z" fill="#FFC469"/>
<path d="M119.665 154.865C136.69 148.034 147.269 134.416 143.295 124.45C139.321 114.483 122.299 111.941 105.274 118.773C88.25 125.604 77.6707 139.222 81.6446 149.188C85.6186 159.155 102.641 161.696 119.665 154.865Z" fill="#FFC469"/>
<path d="M117.795 150.159C102.386 156.343 88.8412 153.616 86.3232 147.3C83.8041 140.983 91.7359 129.636 107.145 123.451C122.554 117.268 136.099 119.996 138.618 126.311C141.137 132.627 133.205 143.975 117.795 150.159Z" fill="#FFA822"/>
<path d="M138.617 126.316C141.131 132.627 133.2 143.973 117.789 150.157C102.392 156.345 88.8382 153.614 86.3241 147.303C85.6116 145.517 85.7342 143.336 86.6241 140.972C91.2925 145.444 103.156 146.713 116.405 141.392C127.449 136.959 134.668 129.869 136.919 123.88C137.692 124.605 138.265 125.431 138.617 126.316Z" fill="#FF6B3D"/>
<path d="M96.1293 136.59L123.433 126.003L125.845 132.265L105.132 140.295L108.328 144.633L103.572 148.231L98.2378 142.068L96.1293 136.59Z" fill="white"/>
</svg>
