<svg width="30" height="30" viewBox="0 0 30 30" fill="none" xmlns="http://www.w3.org/2000/svg">
<path d="M10.1597 8.38858L7.89251 5.29171M7.1684 12.4747L3.5 11.2918M7.1684 17.5253L3.5 18.7082M10.1597 21.6114L7.89251 24.7083M15 23.1721V27M19.8403 21.6114L22.1075 24.7083M22.8316 17.5253L26.5 18.7082M22.8316 12.4747L26.5 11.2918M19.8403 8.38858L22.1075 5.29171M15 6.82795V3M20.608 15C20.608 18.0737 18.0972 20.5655 15 20.5655C11.9028 20.5655 9.39205 18.0737 9.39205 15C9.39205 11.9263 11.9028 9.43455 15 9.43455C18.0972 9.43455 20.608 11.9263 20.608 15Z" stroke="#262226" stroke-linecap="round" fill="#FFD700" />
</svg>